<?xml version="1.0" encoding="UTF-8"?>
<svg id="a" data-name="Layer 1" xmlns="http://www.w3.org/2000/svg" width="5.074in" height="8.26in" viewBox="0 0 365.324 594.694">
  <path d="M95.525,248.805c-.449.085-.898.168-1.346.257.448-.087.897-.172,1.346-.257Z" fill="none"/>
  <path d="M85.605,250.651c-1.352.204-2.707.384-4.075.478,1.354-.095,2.713-.273,4.075-.478Z" fill="none"/>
  <path d="M90.362,249.817c-1.165.231-2.333.443-3.503.639,1.166-.196,2.334-.407,3.503-.639Z" fill="none"/>
  <path d="M99.604,248.121c.113-.016.226-.024.339-.04-.065.008-.128.006-.194.016-.048.006-.096.018-.145.024Z" fill="none"/>
  <path d="M244.053,233.175c1.67-22.193.11-43.273-.324-64.953.606-10.855,1.389-21.899,1.43-32.981-.019-2.048-.377-3.861-1.373-5.01-.975-1.17-2.584-1.682-4.532-1.75-6.593.251-13.762,1.273-20.439.927-39.209-1.249-77.851-4.165-117.207-3.924-23.792.109-50.685-2.252-73.967-.755l-.449.263c-1.757,1.105-2.11,3.691-2.228,6.484-.044,7.433-.148,16.519-.257,24.781-.132,24.66.142,50.883.943,75.755-.513,13.943-1.091,28.699-.115,42.599-.674,30.481-1.707,60.787.813,91.066,0,8.61.075,17.095.33,25.384.181,5.375-2.233,13.149.888,18.198,1.223,1.605,3.449,2.349,6.006,2.667,11.047,1.358,22.635.648,33.707,1.801,27.267,2.424,54.446,3.218,81.678,4.569,27.256,1.953,53.68,5.502,81.143,7.285,3.81-.071,9.355,1.461,12.093-1.066.859-.901,1.263-2.368,1.438-4.104.51-9.859,1.159-21.078,1.134-30.825-1.05-14.481.753-27.713,1.063-42.457.253-12.081-1.043-23.743-.829-36.15.241-25.58-1.067-52.108-.945-77.805ZM212.496,184.125c3.295-.676,5.149,2.41,4.663,5.397-.258,1.587-2.867,3.11-4.424,2.754-.591-.132-2.34-1.846-2.706-2.392-1.593-2.386-.268-5.197,2.467-5.759ZM183.696,153.134c.425-.67,2.776-1.257,3.57-1.305.898-.055,1.872.368,2.439,1.073.268.334,1.026,2.08,1.136,2.505.749,2.902-2.706,6.401-5.692,4.725-1.632-.917-2.308-5.648-1.453-6.998ZM94.946,141.581c2.058-4.154,1.686-4.063,5.336-7.046,1.124-.919,2.944-2.791,4.424-3.102,2.236-.469,4.472.615,3.902,3.169-.232,1.04-1.382,1.364-1.997,2.062-.16.182-1.121,2.268-.549,2.321,17.482,1.639,35.076,2.076,52.618,1.303,1.428-.063,2.876-.136,4.231-.591,2.293-.765,3.428-2.869,5.221-4.316.931-.751,4.087-2.6,5.19-2.532,2.338.142,4.091,1.289,4.286,3.75.063.803-.246,1.514-.194,2.129.069.818.938,1.643.91,2.459-.063,1.823-1.836,2.329-2.794,3.292-.962.969-2.542,3.252-3.623,3.904-.606.364-1.365.344-2,.67-6.321,3.254-11.606,2.793-18.73,2.54-7.925-.279-15.85-.559-23.775-.84-10.703-.378-22.913.898-32.952-2.616-2.625-2.823-.727-4.088.496-6.558ZM75.816,149.645c3.253-.66,5.222,2.813,4.673,5.646-.046.237-2.363,2.934-2.674,3.153-1.156.811-2.5.82-3.642.018-2.998-2.105-2.108-8.056,1.642-8.817ZM54.708,356.06c-.706,3.483-7.362,5.318-8.698,1.769-.329-.876-.851-4.462-.666-5.304.44-1.997,3.185-3.046,4.989-3.268,3.91-.474,5.015,3.647,4.375,6.803ZM55.226,270.134c-.537,4.235-6.583,5.029-8.409,1.168-1.603-3.388-1.35-7.168,3.032-7.761,1.124-.154,2.554.051,3.469.773.958.757,2.066,4.575,1.908,5.82ZM56.431,182.462c-.674,1.305-3.424,3.794-4.943,3.806-5.571.04-5.287-9.796-.431-10.638.6-.103,1.521-.138,2.114-.043,2.198.356,4.262,4.938,3.26,6.876ZM81.36,387.574c-.146.455-1.464,1.813-1.897,1.989-1.06.431-3.635-.067-4.622-.593-.79-.421-2.531-3.06-2.591-3.989-.056-.866,1.585-3.697,2.348-3.924.509-.152,1.303-.085,1.836.008,2.067.356,5.625,4.33,4.926,6.51ZM189.847,394.102c-2.028,2.625-8.882-1.854-6.423-4.966.519-.658,2.517-2.141,3.348-2.256,1.294-.176,3.057.816,3.895,1.819.139,2.161.607,3.555-.82,5.403ZM205.206,171.32c-1.402,1.718-2.036,3.847-1.716,5.613.851,22.529.563,45.225,1.183,67.483.22,9.264-.442,18.05.477,27.175-1.073,5.715-.298,11.344-.357,17.172-.34,2.438-.051,4.693.251,6.714.064,1.23.054,2.438-.187,3.689-1.043,4.644-.3,8.272-1.215,12.961.04,4.879-.271,9.614-.665,14.428,2.66,16.986-2.301,34.745,1.403,51.656.595,1.791.133,3.58-1.883,4.472-2.859,1.427-5.079-.04-8.019.37-3.977.261-7.529-1.706-11.777-1.74-3.123.129-5.71.249-8.878-.255-5.194-.132-9.722.449-14.945-.656-2.824-.328-4.966.136-7.453.016-2.382-.233-4.64-1.119-6.479-1.123-4.296.16-8.326-1.147-12.619-1.445-8.206.02-16.817,1.23-24.863-1.028-13.275-.716-27.16.548-40.239-2.236-2.441-.463-5.307,1.574-7.121-.947-2.798-7.334-1.827-16.67-1.468-24.411,1.71-11.715.55-24.239.637-36.038,1.977-14.987.883-30.502,1.305-45.612.003-15.667.318-30.475.536-46.253.973-3.821-.128-7.182-.097-11.008,1.239-6.943.134-13.941.806-21.187.286-6.935,3.176-14.588.929-21.464-2.052-5.16,4.439-3.576,7.254-3.09,10.728-.706,22.777.526,33.28-1.273l.556-.053c6.803.37,14.313-.629,21.074.609,8.883.522,18.131.731,27.216,1.943,15.663-.595,31.627,2.107,47.289.771,2.937.152,7.429,1.392,5.784,4.749ZM213.468,270.579c1.105-.19,1.868-.182,2.742.54.374.308,1.905,2.406,2.045,2.809.515,1.485-.381,2.117-.732,3.375-.354,1.267.148,1.9-.971,3.157-1.154,1.297-3.513,2.351-5.084,1.23-3.605-2.57-2.448-10.355,2-11.11ZM218.012,365.696c-1.2,1.926-4.825,2.26-6.432.629-.691-.7-1.583-4.231-1.286-5.191.308-.996,2.447-2.479,3.421-2.667,3.335-.641,5.752,4.895,4.297,7.23Z" fill="#f6e6c8"/>
  <path d="M243.519,111.498c-13.859.374-28.484-1.605-42.538-.929-22.839,1.182-46.712.364-69.717.994-22.243-.36-45.062-1.499-67.161-.741-15.023-1.787-30.714-3.139-46.107-3.339-3.194-.077-6.899-2.016-9.762-.998l-.419.251c-2.942,3.161-3.144,12.067,2.714,12.459,11.188.265,22.318.923,33.459.346,37.224-.17,75.267.38,111.975,1.674,29.109,2.428,59.791,3.703,88.934,1.773,7.308-1.281,7.637-12.623-1.379-11.49Z" fill="#f6e6c8"/>
  <path d="M82.417,300.445c17.926-.609,36.592-1.813,54.665-2.969,12.844.389,25.612-.514,38.183-.929,4.469-1.178,8.803-.575,13.275-1.441,2.786-.583,11.42,1.835,9.888-3.187l-.381-.322c-1.012-.522-3.365.5-4.962.291-1.439-.111-2.262-.771-3.705-.82-9.398.729-18.359.834-27.514,1.661-3.469,1.196-7.553.813-11.268.556-10.04-.901-20.074,1.085-30.172-.091-4.85-.504-10.291-.767-15.021-.878-5.099.164-11.873,2.303-16.667,2.246-2.019.113-3.254,1.502-4.902,2.685-1.723.876-6.393,3.825-1.419,3.201Z" fill="#f6e6c8"/>
  <path d="M197.394,281.029c-3.41-.593-7.5-.269-10.819.423-5.317-.99-12.225-.332-17.482-.666l-.652.01c-18.484.87-37.236,1.048-55.717,2.094-7.392.042-16.198.356-23.379,1.327-2.283,1.042-4.538,3.519-6.462,5.176-1.848,4.318,19.183-1.949,21.631-1.552,8.358-.785,16.627.101,24.885.403,7.194.014,14.457-.876,21.684.022,8.49.318,16.692-2.635,25.302-1.694,6.688-.459,13.354-.091,19.584-.637,2.442-.184,3.85-3.746,1.426-4.905Z" fill="#f6e6c8"/>
  <path d="M87.866,347.881c7.923,1.526,16.407.975,24.298,1.833,8.788-.312,18.256-.376,27.299-.425,10.849.71,22.444-.609,33.194.332,2.036-.302,4.28.263,6.515.461,2.822-.419,5.032.486,7.782.862,3.592-.506,10.773,2.266,10.467-3.58.048-1.807-.158-3.232-1.565-3.473-3.649-.134-6.641.018-10.181-.042-12.42-3.562-25.661-.587-38.312-1.858-3.241.522-6.23,1.008-9.45.225-7.139.417-14.083,1.485-21.064.793-9.12.15-18.866,1.599-28.103.903-1.703-.04-3.79-.382-5.381-.125-1.124.221-1.646,1.04-2.435,1.894-.759.884-1.921,1.651-1.988,2.068l.079.219c1.817.799,6.501-.338,8.844-.087Z" fill="#f6e6c8"/>
  <path d="M198.157,234.709c.964-3.584-10.793-2.285-12.905-2.538-4.826.455-10.306-.909-15.176-.538l-.622.067c-21.469,1.852-43.661,5.148-65.159,6.445-4.408.886-8.823,1.676-13.27,2.357-1.827.091-4.178.057-6.093.437-2.097.765-.106,2.109,1.559,1.866,15.044-1.396,30.647-2.653,45.863-4.221,7.728-.093,15.24-.421,22.856-1.111,5.345-.72,11.161-2.175,16.031-1.447,7.943-.688,16.713-1.04,24.809-.269,1.003.004,1.872-.314,2.105-1.048Z" fill="#f6e6c8"/>
  <path d="M97.248,269.096c15.154-2.758,30.902-2.53,46.023-3.729,9.489.186,18.169-.239,27.487-.423,1.766-.144,3.666-1.151,5.141-1.24,2.202.182,4.739.654,7.085.35,4.599.577,9.173-.326,13.831-.508,2.51-.14,2.447-4.642.2-4.782-5.211.641-11.092-.045-16.335.482-2.585.099-4.363-.326-6.903.374-2.843.36-5.843-.146-8.77-.132-18.256-.241-36.326,3.086-54.549,2.695-7.685.097-15.488,1.572-23.057,1.92-1.298.431-2.134,1.789-3.179,2.702-1.072,1.05-2.869,1.71-3.363,3.118l.208.227c5.102.846,10.946.164,16.181-1.054Z" fill="#f6e6c8"/>
  <path d="M193.439,331.767c-.525.54.037,1.937-1.428,2.821-1.87,1.129-5.859.065-8.228.269-3.045.263-5.911.32-8.971.518-1.132.073-2.244-.593-3.274.828-.009.955,6.472.512,7.379.627,1.223.154,3.027,1.095,4.175,1.188,2.787.229,5.714-.322,8.481.5,1.632-.494,4.002-.032,5.537-.528,1.085-.352.369-4.893-.109-5.65-.484-.767-2.916-1.238-3.563-.573Z" fill="#f6e6c8"/>
  <path d="M192.901,356.42c-11.692-.008-23.012-2.277-34.735-1.811-22.581-.04-44.749.577-66.786-1.894-1.597-.212-3.573-.696-5.407-.526-1.271.129-1.591.949-2.079,1.92-.447.939-1.635,1.611-2.889,2.056-9.994,3.033-4.835,3.416,1.81,5.29,17.474,2.402,34.33,1.538,51.501,1.979,20.541,1.281,41.417,3.418,61.817,5.591l.302-.257c.612-2.625,1.03-7.042,1.021-9.948.196-2.614-2.579-2.679-4.556-2.4Z" fill="#f6e6c8"/>
  <path d="M190.36,310.843c-5.227.368-10.478.057-15.741,1.115-14.011.595-27.614,1.002-42.011,1.576-13.216-.032-26.61,2.078-39.883,1.058-1.161.069-1.592.785-2.328,1.651-.604.854-1.752,1.704-1.739,2.074l.125.196c10.263.967,21.937-2.198,32.125-1.789,2.951.03,5.392-.971,8.353-.623,14.998-1.773,30.637.249,45.816-.103,4.994-.777,23.055,3.305,22.826-3.604-.183-3.602-5.431-1.394-7.541-1.55Z" fill="#f6e6c8"/>
  <path d="M91.688,340.051c6.013-.55,11.77-1.617,17.682-1.283,7.333-1.801,15.091-.741,22.539-.955,9.528-1.653,19.284-.223,28.91-1.186,2.12.281,3.918.378,6.022-.148.828-.032,1.849.443,2.765.358,1.634-.728-.141-1.22-1.648-1.109-14.906.03-30.032-1.629-45.262-1.218-3.05-.2-5.482.38-8.179.733-5.254-1.311-12.044.939-17.094-.002-1.934-.498-4.091.542-5.768.611-1.264-.032-2.276-2.038-3.04-2.109l-.352.073c-.61.637-1.471,2.355-3.35,3.029-9.703,4.397,3.545,2.657,6.775,3.207Z" fill="#f6e6c8"/>
  <path d="M197.466,269.159l-.539-.014c-4.985,1.155-10.599-.018-15.799.308-13.855,1.261-28.041.955-41.965,1.356-15.57.743-30.808.194-45.843,2.542-2.928,1.408-4.065,4.424-7.953,5.69-4.488,2.41,1.02,2.015,2.954,1.53,18.566-2.523,36.929-3.588,55.673-4.197,6.651-1.263,13.815.437,20.52-1.026,10.941-.275,22.573,1.119,33.386-.259,1.54-.69,1.762-5.82-.432-5.931Z" fill="#f6e6c8"/>
  <path d="M197.943,301.166c-1.703-1.423-3.845-.37-5.977-.33-5.617.314-11.414-.478-16.776,1.238-1.483.227-3.157-.336-4.519-.382-4.353.85-8.966.316-13.537,1.125-21.246-.494-41.916.886-63.209,1.631-2.288-.073-4.331-.35-6.602.14-2.295.702-2.912,3.612-5.123,4.547-.459.374-1.143.803-1.325,1.417l.195.231c24.453-.532,49.262-2.548,73.916-3.695,5.828.024,11.267-.68,17.003-.202,2.64-.01,5.296-1.238,7.675-1.048,4.374-.02,8.673-.429,13.058-1.141,1.421-.212,3.239.012,4.516.042,2.064.034,1.5-3.159.704-3.574Z" fill="#f6e6c8"/>
  <path d="M306.734,362.451c-1.926-1.23-5.856-3.61-8.034-3.475-1.713.105-2.393.291-2.031,2.129.513,2.61,4.828,11.662,7.004,12.906,2.805.393,6.785,4.628,7.952-.607.303-1.362-.264-2.948-.687-4.231-.383-1.16-3.289-6.138-4.203-6.722Z" fill="#f6e6c8"/>
  <path d="M282.758,426.255c-.145-.666-1.27-3.764-1.618-4.209-.382-.486-.783-.627-1.4-.445-.683.2-2.159,3.096-2.264,3.835-.078.546.084,3.695.199,4.205.065.285,2.668,3.452,3.099,3.942,1.76,2.001,3.283,3.145,2.916-.733-.153-1.619-.603-5.079-.932-6.595Z" fill="#f6e6c8"/>
  <path d="M296.374,398.309c.306,1.945,3.702,8.262,5.045,9.766.984,1.103,2.184,1.491,3.272,2.313,1.646,1.242,3.773,4.124,5.435,1.174,1.584-2.809-.488-6.848-2.158-9.066-1.868-2.481-5.253-5.609-7.642-7.655-.54-.463-1.921-1.133-2.622-.925-1.633.482-1.543,3.044-1.33,4.393Z" fill="#f6e6c8"/>
  <path d="M307.349,308.188c.752.518,2.321,1.55,3.287,1.07,1.667-.828-.372-4.834-1.004-5.816-.311-.484-2.463-3.446-3.213-2.797-1.158,1-1.285,2.914-1.153,4.316.126,1.338,1,2.485,2.082,3.228Z" fill="#f6e6c8"/>
  <path d="M277.548,149.299c-3.519-1.72-9.441-2.406-10.053,2.821-.481,4.104,1.379,8.165,3.936,11.273,1.784,2.169,4.187,3.669,6.524,5.166,2.047,1.313,4.17,3.63,6.439,4.438.569.202,2.858,1.064,3.4.605.109-.51.263-.975.251-1.512-.112-4.685-1.583-9.296-3.384-13.582-1.51-3.594-3.439-7.412-7.113-9.209Z" fill="#f6e6c8"/>
  <path d="M348.221,326.841c-.963-35.585-.673-70.866.139-106.425-.303-32.08-1.755-64.498-.774-96.615.06-20.535.806-40.419-1.052-60.951-.948-11.579,1.276-23.678,1.766-35.105.252-6.88-5.792-9.922-10.347-3.752-14.047,18.044-29.466,36.089-46.691,51.225l-.506.421c-6.017,4.927-11.442,10.705-17.212,15.669-6.347,6.741-16.111,12.854-18.162,22.343.771,9.11-5.647,16.118-6.015,25.123-.373,14.453,1.639,30.139.95,44.106.866,21.049.746,41.795-.937,62.782,2.507,25.111.996,50.351,2.125,75.31,1.284,25.034,1.07,51.209-.757,76.413,2.496,24.882,2.069,49.313.875,74.124-.065,10.146-.406,21.416-.147,31.951,1.286,8.977,1.951,17.796.744,26.72.377,11.118-.002,22.61,1.883,33.337.49,4.996,4.45,6.53,7.084,10.492,5.303,4.59,11.594-2.803,16.97-4.025,5.339-2.663,12.034-5.429,18.188-7.961,9.496-6.089,19.302-10.79,29.791-14.914,4.29-2.185,9.031-4.379,10.759-8.878.832-1.922,1.57-3.999,3.331-5.152,2.19-1.532,4.815-2.954,5.078-5.923,2.087-37.305,2.434-75.428,3.801-112.836-.694-28.334-1.592-58.846-.882-87.478ZM269.281,560.684c-3.356-.249-4.02-1.941-6.474-2.772-2.023-.682-5.127.194-4.311-3.355.157-.682,1.613-2.145,2.304-2.305.835-.194,4.46.304,5.427.54,1.506.364,2.605,1.441,3.855,2.214.968.599,2.191.391,2.429,1.945.308,2.015-1.126,3.887-3.231,3.732ZM275.732,337.02c-3.028-1.874-5.533-3.602-8.835-4.13-2.209-.125-4.215-1.633-3.17-3.877,4.393-7.445,15.27-10.505,18.397-19.315l.444-.182c3.275-.354,3.501,4.507,2.917,6.876-.49,2.281-2.575,3.525-4.03,5.061-1.865,2.718-5.012,5.96-6.92,8.321.168,2.418,6.667,5.401,8.787,6.384,1.6.939,1.713,3.037,1.774,4.535.115.927.362,1.487-.03,2.319-1.444,3.015-3.172,2.967-5.893,6.117-2.247,2.141-6.758,3.695-5.392,6.874,1.155,1.392,3.544,2.147,4.878,3.76,1.363,1.607,3.368,2.26,5.155,3.205,1.959.943,1.478,4.887-1.117,3.952-3.12-1.091-6.034-4.241-8.94-5.804-2.863-1.736-6.28-3.97-8.251-4.395-2.163-.168-4.169-1.999-4.371-4.14-.101-1.538,1.517-2.228,2.804-2.564,1.092-.374,1.792-1.336,2.753-2.042,1.429-1.02,3.84-1.922,4.914-2.687.914-.722,3.565-3.169,5.022-4.444,2.062-1.528,1.467-2.357-.898-3.823ZM277.747,230.708c-3.087,1.087-7.684,2.465-10.85,1.431-2.791-1.538-2.688-6.48-.343-8.315,1.7-1.079,4.296-.771,6.264-.921,3.944-.219,7.907-.82,11.71-1.645l.498.02c4.654,2.232.673,8.699-1.342,11.741-3.756,5.259-5.87,11.67-8.915,17.358-1.652,2.143-3.23,4.768,1.289,3.847,3.502.263,10.808-3.883,10.368,2.341.113.988,1.062,1.906.901,3.037-.387,2.248-2.907,1.839-4.569,1.609-5.399.749-11.458.668-16.793,1.609-2.999-.676-.873-4.496-.068-6.198,2.011-5.559,5.123-11.456,7.978-16.436.881-1.238,9.207-11.065,3.872-9.477ZM277.931,270.796c1.744-.299,3.52-.706,5.252-1.026l.654-.065c3.505-.168,1.672,3.644,2.148,6.168.225,2.252-.471,3.916-.524,5.976.338,4.632,1.587,9.381.425,14.102-.528,1.882.534,3.752.205,5.545-1.138,3.501-5.308,3.199-5.384-.666-.695-5.002,1.486-9.839,1.05-14.809-.322-2.07.533-4.861-1.505-6.038-2.851-.004-2.318,3.877-2.254,5.984-.158,4.387,1.185,9.525-1.442,13.279-.95.69-2.134,1.014-3.005-.071-1.557-1.852-.315-4.648.012-6.686.445-3.408.737-7.228.444-10.624-.194-.219-.581-.66-.774-.882-.975-.431-2.617.01-3.197.828-.79.971.075,2.874-.083,4.328-1.589,4.537-.316,9.207-.834,13.898.118,2.647.324,8.301-3.785,7.321-2.751-1.259-1.647-5.154-1.183-7.556,1.724-7.463,1.114-15.782-.595-22.95-1.01-8.24,9.555-4.654,14.376-6.055ZM266.66,371.17l.579-.146c5.506-.198,1.113,7.172-.252,9.424-.506,2.153-1.49,4.237-2.047,6.435-.34,1.459.127,3.052.233,4.413-.397,2.218-.019,12.275,3.608,5.458.946-1.038,2.096-1.769,2.053-3.108.809-5.053,1.151-10.982,2.29-16.16.898-4.802,7.057-5.968,10.112-2.576,3.911,8.026.768,17.603-.057,26.351-.305,1.724-.697,4.28-2.522,4.94-.94.332-2.562-.763-2.701-1.823-.162-1.048,1.007-1.811,1.238-2.841.328-1.24.02-2.683.245-4.144.188-3.576,2.349-10.676-.402-13.222-.35.107-.646.639-.767,1.263.011,5.947-2.447,11.945-2.931,17.868-2.463,5.846-7.393,8.784-12.192,3.056-4.485-7.002-5.114-17.006-2.141-24.7.397-3.681,2.255-8.631,5.655-10.49ZM289.926,454.279c-.189,7.143-1.777,14.185-1.486,21.363-.048,2.76-1.466,5.514-2.249,8.141-.351,2.181-.957,7.249-4.415,6.971-1.523-.504-2.23-2.39-3.848-2.884-1.187-.524-2.471-2.436-2.748-4.053.169-2.497,3.418-7.109,4.589-9.875,2.517-4.181,2.92-9.054,3.087-13.779.416-2.256,2.155-4.114,1.747-6.227-.355-2.517.64-5.923-1.851-7.702-4.648-2.841-8.061-6.231-9.655-11.65-1.431-5.458-2.161-12.073,1.18-15.456,2.372-2.801,6.456-5.676,9.677-2.386,6.467,6.03,3.27,15.667,6.293,22.79l.161-.105c.526-1.176.528-4.039.487-5.634.054-7.847,6.469-9.464,12.253-4.778,2.909,2.736,6.143,5.713,10.529,6.01,1.736.083,1.396-2.515,2.96-3.394,2.571-1.107,4.015,2.817,4.353,4.806.222,1.718-.971,3.511-2.509,4.252-5.969,2.291-14.136-1.641-19.014-4.284-.816-.348-2.191-.941-2.911-.423-1.097.947-.216,2.853.102,4.08.498,2.032,1.563,4.243,3.553,5.36,4.721,2.447,10.636,5.116,15.823,6.571.849.314,1.713.882,2.315,1.562,1.268,1.734,1.481,7.489-1.597,7.402-2.07-.561-3.873-2.345-6.12-2.94-3.506-1.439-6.952-3.284-10.588-3.434-2.505-1.475-5.326-3.383-8.382-4.233-2.337-.506-1.77,2.279-1.739,3.93ZM298.325,211.31c-2.733,4.82-.128,12.162,3.028,15.992,3.691,11.188,14.958,18.372,17.633,29.854,1.48,3.08,3.319,12.265-2.18,11.567-1.998-.947-1.418-4.219-2.992-5.324-2.156-1.809-5.662-2.05-8.352-1.803-1.927.368-3.566,1.046-5.473.265-6.714-2.173-9.867-11.524-7.359-17.66,1.255-1.595,3.836-4.776,6.254-3.685,1.366.654,1.573,2.277.775,3.503-.772,1.249-1.856,2.165-1.232,3.197.951,1.368,1.801,3.381,3.157,4.361,2.201,1.289,6.583,2.404,8.572.609.275-.554-.06-1.471-.548-2.341-3.945-6.287-10.429-12.405-12.86-19.028-1.252-2.797-3.308-5.195-4.386-7.957-4.797-4.339-3.954-11.67-.219-16.334.852-2.701,3.404-4.547,5.953-4.565l.565-.049c6.388-.123,10.242,2.829,14.399,7.461,2.619,2.602,3.073,6.921,4.78,10.731.398,1.16.85,2.412.879,3.636.293,3.159-2.726,5.909-4.852,7.884-7.378,3.517-10.508-4.381-11.192-10.814-.611-2.825.038-5.057.215-7.696-.069-2.06-3.219-3.756-4.565-1.803ZM322.03,489.804c-.858,1.748-3.3,2.4-4.351.901-.532-1.402-2.182-2.619-3.635-2.762-2.091.024-4.424,1.977-6.108,3.037-9.672,6.087-22.587-12.208-13.14-18.987,1.566-1.123,3.503-.743,4.832.775.412.472.733,1.087.63,1.704-.192,1.158-1.368,1.162-2.001,1.902-.52.609-.67,1.597-.636,2.364.068,1.52,2.526,3.837,4.015,4.017.879.105,2.708.073,3.589-.063.686-.109,3.643-1.2,3.798-1.809.273-1.072-2.225-2.546-2.849-3.135-2.31-2.177-3.719-4.871-5.516-7.459-1.852-2.667-3.838-5.419-4.521-8.657-.881-2.43.772-5.492,3.505-4.658.681.312,1.322,1.018,1.495,1.692,2.068,8.042,7.736,15.841,14.087,21.412,2.586,2.602,8.392,5.385,6.805,9.725ZM322.607,474.445c-.815.326-3.221.85-4.05.763-2.265-.241-6.205-3.242-3.8-5.458,1.604-1.479,2.1.31,3.65.372.012-1.904-.354-2.969,1.101-4.361,1.139-1.089,2.774-1.991,4.332-1.192,4.431,2.273,2.69,8.297-1.233,9.877ZM329.025,394.927c-1.436-.48-2.72-1.898-3.945-2.936-2.957-2.758-6.255-3.137-10.065-4.604-5.19-2.1-9.818-5.251-15.226-6.554-2.432-.631-2.364.937-1.223,2.979.544,1.18.605,2.483,1.316,3.177,8.612,2.819,15.587,10.488,17.431,19.548.568,2.582.345,5.184-1.182,7.791-.541.88-1.549,2.02-1.406,3.044.253,2.181,5.244,2.507,3.157,5.421-1.142,1.637-3.934,2.805-5.349,2.507-1.405-.31-3.018-2.53-4.494-3.817-1.221-1.174-2.809-2.167-4.303-3.238-1.683-1.103-2.725-3.106-4.864-3.106-2.47.411-1.87,2.959-.547,4.401,2.49,3.13-1.469,5.037-3.945,3.363-2.781-2.185-4.538-5.498-4.942-9.1-.056-2.066.229-3.964,1.604-5.435.854-.813,1.992-1.491,2.083-2.388-1.439-4.32-4.166-11.259-.463-15.226.585-.822,1.66-1.888,1.667-2.823-1.991-3.335-4.129-7.943-2.991-12.225.342-2.171,3.526-2.568,3.378-4.739-.159-.99-1.247-1.951-1.664-2.916-.597-1.338-.528-2.776-1.146-4.444-1.171-2.764-1.079-5.832.082-8.408.584-1.366,2.972-2.592,2.947-4.302-.212-1.617-2.645-6.561-2.978-8.519-1.086-4.845,2.674-12.087,8.585-10.638,1.775.302,5.372,4.907,6.841,2.874.521-2.109-1.803-3.634-3.119-4.966-1.041-1.058-1.968-2.465-2.99-3.612-1.155-1.293-2.345-2.556-3.499-3.851-2.153-2.416-4.645-5.142-5.699-8.26-1.855-5.492.266-11.201,1.6-16.547.553-2.216,3.075-3.693,3.649-6.049-1.135-2.649-4.253-5.802-5.021-9.041-1.374-3.531-.391-7.012,1.396-9.916,3.452-8.23,14.061-1.88,19.479.977,2.502,1.182,2.307-1.558,4.211-2.851,1.527-.917,3.247.472,3.446,2.121.303,1.961-1.277,4.594-.01,6.229,2.229,2.56,9.243,4.086,6.632,8.813-3.363,6.374-8.418-4.581-7.461,6.119l.114.595c.702,1.566-.054,4.978-2.371,4.458-2.183-.913-1.543-4.509-1.826-6.579-.427-3.09,1.072-6.967-2.236-8.75-4.83-2.285-9.248-6.478-14.626-7.17-1.883-.243-1.645,2.629-1.597,3.606.113,2.301.839,4.027,2.33,5.822.755.907,1.583,1.752,2.343,2.655.748.888,1.264,2.06,2.196,2.708,2.074,1.443,4.467,2.307,6.411,3.98,2.334,1.872,3.342,4.891,5.077,7.809,3.766,7.281-1.796,20.432-10.464,11.891-2.874-2.825-4.598-5.494-3.885-10.075-.003-1.73.715-3.432.63-5.11-.072-2.05-2.679-.858-3.775.907-.969,1.37-1.094,3.161-1.117,4.786-.022,1.56-.132,3.288.112,4.824.307,1.935,1.192,3.744,2.277,5.36,1.681,2.501,3.757,4.751,5.751,6.983.825.925,2.612,3.873,4.262,2.612,3.487-2.56,8.531-3.895,11.415.13,3.843,4.211,3.819,12.18-3.744,11.553-6.311-.668.56,6.314.666,9.098.319,2.016-1.128,4.685-3.381,4.5-3.784-.886-5.338-6.548-8.987-7.097-2.742-1.111-6.094-3.665-8.27-.52-.817,2.566,2.282,6.014,3.759,8.26,1.1,1.21,3.066,1.311,4.516,2.218,3.276,2.179,7.74,4.871,9.729,9.015,2.677,4.666,4.476,11.476.555,15.798-.566.793-.8,1.501-.3,2.107,1.37,1.423,4.157,2.244,6.13,2.961,3.336,1.55,6.88,3.128,9.615,5.419,2.169,2.119,1.527,7.433-2.284,6.393ZM339.449,164.951c-1.457,3.752-4.463,7.354-7.523,9.715-8.489,5.073-16.708-2.758-24.983-4.551-9.594-1.376-5.437,10.187-1.406,13.825,5,3.997,8.553,5.875,14.396,8.37,7.211,3.695,16.393,10.794,13.926,19.819.017,1.829-2.493,4.114-3.833,2.163-.623-2.653-.905-5.029-2.693-7.329-2.285-2.699-6.532-4.634-9.411-6.811-6.157-5.142-15.215-8.362-22.602-11.545-2.521-.008-2.509,2.999-3.06,5.017-1.162,3.756-2.313,8.111-4.417,11.326-2.198,1.69-4.039-1.16-3.642-3.452.676-3.23,2.674-6.688,2.781-10.227.325-2.702,1.66-5.79-1.363-7.329-12.58-5.789-27.254-17.607-26.472-32.357,1.14-3.145,3.536-6.852,6.879-7.837,4.126-1.502,8.272-2.068,12.321-.344,8.964,4.179,12.144,14.914,14.603,23.882.101,2.89.466,5.877.519,8.499.002,1.16.975,2.455,1.657,2.513,1.037.119.289-2.2.401-3.798.117-5.945,2.315-12.119,8.66-13.503,2.902-1.461,6.622.206,9.557,1.095,3.163.765,4.942,4.146,8.14,4.972,8.611,1.457,12.417-2.786,11.497-11.599-.35-3.355-2.162-6.554-5.335-7.928-2.118-.917-5.223-1.117-5.822,1.789-.415,2.018,1.561,5.411-1.69,5.583-6.252-2.515-.122-12.631,3.652-14.882l.548-.152c1.78-.083,4.678-.13,6.57.589,5.578,2.857,8.351,11.049,8.765,16.721-.409,2.653.004,5.085-.62,7.763Z" fill="#f6e6c8"/>
  <path d="M18.662,104.066c14.514-1.137,30.185.417,44.833,1.176,21.223-.88,42.027.864,63.415.842,31.887-.119,63.625-.571,95.37-.761,6.519.706,12.244.692,19.063.903,5.026,0,9.817-.089,13.669-3.503,15.495-15.663,31.788-29.049,47.824-44.035,7.98-9.343,16.748-18.101,24.67-27.262,4.366-5.781,9.092-11.541,13.326-17.342.839-1.388,1.156-2.554.681-3.278l-.241-.287c-34.821-3.033-71.266-.03-106.333-1.839-47.355-3.507-94.681.425-141.626-3.764-2.514-.125-4.446.83-6.169,2.837-5.401,6.563-9.653,13.643-15.157,20.28-9.356,10.539-19.053,20.546-29.026,30.631-5.316,6.04-9.834,13.463-14.94,20.108-5.794,6.498-11.656,12.186-16.379,18.791-2.927,4.818,2.625,6.516,7.018,6.502Z" fill="#f6e6c8"/>
  <path d="M189.981,326.619c2.996.042,8.514-.629,7.102-4.731l-.322-.372c-18.381.275-36.783-.625-55.134-1.287-5.294.034-10.265,1.465-15.504.51-10.434.423-21.373,1.289-31.666,1.742-2.273,1.111-2.296,2.527-5.43,3.383-1.368.654-11.072,3.831-6.154,4.078,25.038-2.001,49.924-2.026,75.251-2.762,10.537-.931,21.139-.304,31.857-.561Z" fill="#f6e6c8"/>
  <path d="M30.403,420.425c11.789,1.52,24.893-.038,37.022,2.105,27.685,4.296,56.073,3.201,84.13,5.029,20.7,1.556,41.227,2.584,61.524,5.806,8.348.54,17.26,1.807,25.592,3.141,2.007.225,3.799.016,4.664-.905l.266-.334c3.124-5.304-25.005-3.454-28.886-5.063-11.934-2.455-23.584-2.299-35.242-5.322-21.644-.132-43.708-3.169-65.608-2.766-28.186-2.135-55.886-3.736-83.937-6.933-5.634-.146-4.698,4.565.475,5.241Z" fill="#f6e6c8"/>
  <path d="M310.713,227.007c.661-.204,1.204-2.546,1.099-3.173-.036-.215-.988-2.78-1.158-3.23-.372-.985-2.287-5.393-3.5-5.172-.915.168-.728,3.647-.651,4.468.17,1.811,1.577,7.916,4.211,7.107Z" fill="#f6e6c8"/>
  <path d="M197.602,246.723c-5.157-.617-12.003.227-17.082-.212l-.61.032c-15.364,1.91-30.919,1.072-46.279,2.716-14.973.439-29.195,3.549-43.783,4.387-3.331.587-5.705.969-8.311,3.8-7.179,6.684,19.998.206,22.226.188,20.375-.846,41.01-2.898,61.273-3.673,4.246.107,8.303.556,12.396-.423,6.539.3,13.575.791,19.982-.826,2.175-.783,2.062-4.952.187-5.988Z" fill="#f6e6c8"/>
  <path d="M315.683,330.927c2.424.277,1.074-2.768-.982-2.321-1.822.395-.977,2.096.982,2.321Z" fill="#f6e6c8"/>
  <path d="M243.67,486.525c-.367-8.946.188-17.29-.366-26.293-.15-2.876-1.204-5.217-4.347-5.571-14.407-3.11,19.938-10.468-13.218-13.532-24.959-2.726-50.377-5.334-75.243-7.222-26.383-.737-53.306-.791-79.413-5.023-12.569-2.485-26.497-1.485-38.799-2.683-3.226-.362-5.811,1.388-6.099,4.883-.332,22.666-.438,45.306-.686,67.997-.016,15.039-2.456,30.645-.232,45.379l.212.526c1.668,3.56,3.781,7.348,4.696,11.199.695,2.125,1.361,4.116,3.175,4.986,2.87,1.297,6.275.585,9.542.652,33.315,2.416,65.552,9.709,98.991,12.832,27.433,1.991,53.418,5.86,80.922,7.704,4.895.13,10.024,1.103,14.815,1.506,1.797.036,3.346-.417,4.32-1.621,2.488-3.614,1.145-9.112,1.387-13.321.873-9.05,1.575-17.53.759-26.191,2.025-18.516-2.165-37.811-.417-56.209ZM174.449,531.925c-2.104,3.254-5.206,4.622-8.926,5.399-3.068.641-7.001,1.083-10.143,1.044-6.618-.081-12.945-4.053-18.871-6.621-2.84-1.232-5.003-2.787-7.628-4.268-.377-.212-1.245-.755-1.613-.724-.832.071-1.967,2.742-2.482,3.574-2.503,4.045-5.124,8.412-8.365,12.03-2.063,2.303-3.655,2.293-6.229,3.483-4.368,2.018-5.438,2.997-10.651,2.967-2.699-.014-7.67-.249-9.709-2.185-4.29-4.074,5.188-4.221,7.232-4.687,8.21-1.874,13.367-9.792,16.461-17.045.079-2.04,2.518-5.986,2.408-7.765-.081-1.313-1.332-1.819-2.063-2.56-5.388-5.466-10.589-11.093-16.004-16.531l-.71-.217c-.347.105-.807,1.204-.864,1.582-.275,1.809-.187,4.403-.261,6.295-.133,3.422.478,6.585.501,9.952.025,3.651-1.054,7.937,1.101,11.278.801,1.242,2.845,2.07,2.758,3.748-.07,1.332-.767,2.659-2.259,2.574-3.949-.229-8.197-2.333-12.203-2.627-1.168-.085-5.395.314-6.042-.271-1.861-1.682,2.945-2.837,3.417-4.361.188-.609.515-3.218.592-4.021.039-.399-.269-.89-.236-1.429.057-.915.95-2.076.982-2.944.083-2.268-.88-3.926-.996-5.589-.103-1.483.389-3.379.259-5.102-.064-.838-.514-1.752-.503-2.428.011-.684.609-1.554.646-2.459.171-4.142-.07-8.479.103-12.571.033-.791.672-1.801.649-2.865-.018-.83-.526-3.711-.716-4.624-.379-1.823-1.993-1.752-3.109-2.718-2.14-1.852-1.367-5.346,1.808-4.968,4.189.498,11.576,2.473,14.931,4.98,5.504,4.112,8.269,9.098,12.761,13.945,2.806,3.029,5.997,5.654,8.972,8.509,1.491,1.091,2.826-1.635,2.816-2.809-.011-1.273-1.585-2.477-2.159-3.43-2.355-3.906-4.212-6.328-6.792-9.962-2.77-3.902-4.748-8.323-8.164-11.747-4.524-4.531-8.482-7.546-15.129-5.399-1.638.528-2.322,1.663-4.25,1.228-1.427-.322-1.544-3.416-1.024-4.563.305-.672,2.624-3.027,3.272-3.525,1.447-1.111,5.909-2.74,7.715-2.965,5.711-.72,13.314,1.955,17.305,6.121,3.594,3.75,7.996,10.28,10.778,14.716,1.531,2.44,3.151,5.091,4.063,7.833.299.621.997.575,1.393.02.433-.609,1.127-2.612,1.595-3.503,3.504-6.678,7.085-13.754,13.648-17.917,8.396-5.328,15.171-5.854,24.028-1.06,1.135.613,4.5,4.883,4.826,6.105.414,1.556-.73,2.576-2.202,2.683-1.897.136-2.82-1.174-4.323-1.989-4.783-2.592-10.421-2.06-14.493,1.613-4.614,4.163-7.1,10.015-9.91,15.341-3.232,6.127-6.026,11.567-8.165,18.303-.321,1.01-1.408,4.399-1.361,5.219.05.87,2.175,2.349,2.956,2.888,3.228,2.232,9.545,6.225,13.092,7.546,3.637,1.354,2.656-.059,3.205-2.616.099-.461.512-.846.619-1.323,1.782-7.969.498-16.379.539-24.473.004-.775.603-1.813.705-2.695.135-1.172-.053-4.116-.737-5.037-.657-.886-6.487-3.092-3.291-4.82,2.061-1.113,3.523-.399,5.644-.427,1.275-.018,3.132-.508,4.37-.504,1.899.008,3.945,1.012,5.596,1.204,1.589.186,2.47-.629,4.207.401,4.32,2.566-1.514,4.337-3.254,5.692-.4.836.107,1.69.126,2.536.04,1.704-.048,3.414-.02,5.12.104,6.348-.802,12.749-.971,19.163-.069,2.617.297,5.312.273,7.779-.015,1.536-1.278,4.549.227,5.824.867.735,3.823.585,4.866.263.673-.208,1.113-1.176,1.864-1.313,2.254-.411,2.449,3.266,1.522,4.699Z" fill="#f6e6c8"/>
  <path d="M21.004,370.541c-2.446-27.021-2.524-54.603-1.181-81.598-.011-51.288-1.278-103.29,1.063-154.605.249-4.112,1.761-13.046-4.372-10.604l-.403.334c-3.124,5.844-.748,13.378-1.571,20.096.929,14.77-1.712,29.482-1.499,44.27-1.238,56.209,1.157,112.417-.583,168.452,1.882,30.37-.819,61.115-1.462,91.683-1.019,20.709,2.015,41.413,1.623,62.195-.837,14.123,1.374,28.085,1.452,42.166.042,2.175.284,5.551,2.414,6.214.962.032,1.797-1.718,1.995-3.958.44-7.892-.253-14.402.273-21.681,1.212-33.622,1.494-67.699,2.367-101.186.27-10.383-.218-21.452,1.084-31.742-1.168-9.582-1.892-20.455-1.201-30.034Z" fill="#f6e6c8"/>
  <path d="M365.075,539.451c-.931-1.908-3.746-2.59-6.126-2.787-3.348-.192-5.204-2.303-5.587-5.354-1.61-24.285,1.261-48.564,1.017-73.094,2.429-49.837.475-99.812.092-149.704-.145-54.042,1.503-109.683-.392-163.561.457-29.172,1.338-58.652-.902-87.885,1.294-16.104,2.236-32.883-.156-49.232-2.532-7.062-12.119-4.59-18.116-4.377-59.873-.423-120.381-1.85-180.264-2.993-21.434-.577-44.21,1.858-65.257-.465l-.555.18c-9.196,7.107-15.512,18.635-23.921,26.946-13.472,15.266-29.505,28.047-40.113,45.606-8.009,11.393-22.442,19.111-22.925,33.905.068,5.563-4.533,12.548.448,16.302,3.105,1.234,7.288,1.327,7.108,5.834-.426,17.982-2.252,35.686-3.121,53.919-1.535,43.092.669,87.009-.528,130.198-.356,23.472,1.914,46.314-.299,69.699-.651,31.396-1.56,61.849-1.018,93.34,1.74,20.655.74,41.269,2.018,62.003.599,7.307,1.152,14.95-.269,22.027-.462,3.311,1.193,5.842,4.163,6.858,21.815,5.156,45.969,6.15,68.649,8.068,37.37,4.873,75.049,9.845,112.227,15.606,17.732,1.054,36.917,3.804,54.186,4.189,8.276.287,16.073-3.831,24.377-3.64,13.33-.801,23.706-10.735,35.524-15.972,8.721-3.551,18.414-6.524,24.956-13.625,9.372-3.181,17.44-9.1,25.209-14.934,3.032-2.03,11.358-1.724,9.57-7.058ZM11.643,97.564c4.722-6.605,10.585-12.293,16.379-18.791,5.105-6.645,9.624-14.068,14.94-20.108,9.973-10.084,19.67-20.092,29.026-30.631,5.505-6.637,9.757-13.716,15.157-20.28,1.722-2.007,3.654-2.961,6.169-2.837,46.945,4.189,94.271.257,141.626,3.764,35.067,1.809,71.512-1.194,106.333,1.839l.241.287c.474.724.158,1.89-.681,3.278-4.234,5.8-8.961,11.561-13.326,17.342-7.922,9.161-16.69,17.919-24.67,27.262-16.036,14.985-32.329,28.371-47.824,44.035-3.852,3.414-8.643,3.503-13.669,3.503-6.819-.212-12.544-.198-19.063-.903-31.744.19-63.482.643-95.37.761-21.388.022-42.192-1.722-63.415-.842-14.648-.759-30.319-2.313-44.833-1.176-4.393.014-9.946-1.684-7.018-6.502ZM21.121,432.317c-.873,33.488-1.155,67.564-2.367,101.186-.525,7.279.167,13.789-.273,21.681-.198,2.24-1.034,3.989-1.995,3.958-2.13-.662-2.373-4.039-2.414-6.214-.078-14.082-2.289-28.043-1.452-42.166.393-20.782-2.642-41.486-1.623-62.195.643-30.568,3.344-61.313,1.462-91.683,1.74-56.035-.655-112.243.583-168.452-.214-14.788,2.428-29.5,1.499-44.27.824-6.718-1.553-14.252,1.571-20.096l.403-.334c6.133-2.442,4.621,6.492,4.372,10.604-2.341,51.316-1.075,103.317-1.063,154.605-1.343,26.995-1.265,54.578,1.181,81.598-.691,9.578.033,20.452,1.201,30.034-1.302,10.29-.814,21.359-1.084,31.742ZM243.328,568.924c-.242,4.209,1.101,9.707-1.387,13.321-.974,1.204-2.523,1.657-4.32,1.621-4.791-.403-9.92-1.376-14.815-1.506-27.505-1.844-53.489-5.713-80.922-7.704-33.439-3.124-65.676-10.417-98.991-12.832-3.267-.067-6.672.644-9.542-.652-1.815-.87-2.48-2.861-3.175-4.986-.914-3.851-3.028-7.639-4.696-11.199l-.212-.526c-2.224-14.734.216-30.34.232-45.379.248-22.691.353-45.331.686-67.997.288-3.495,2.873-5.245,6.099-4.883,12.303,1.198,26.231.198,38.799,2.683,26.107,4.233,53.03,4.286,79.413,5.023,24.866,1.888,50.284,4.496,75.243,7.222,33.155,3.064-1.189,10.422,13.218,13.532,3.143.354,4.197,2.695,4.347,5.571.553,9.003-.001,17.348.366,26.293-1.748,18.397,2.442,37.692.417,56.209.816,8.661.114,17.14-.759,26.191ZM29.928,415.185c28.052,3.197,55.751,4.798,83.937,6.933,21.9-.403,43.964,2.633,65.608,2.766,11.658,3.023,23.308,2.867,35.242,5.322,3.88,1.609,32.009-.241,28.886,5.063l-.266.334c-.865.921-2.657,1.131-4.664.905-8.332-1.334-17.243-2.602-25.592-3.141-20.298-3.222-40.825-4.25-61.524-5.806-28.057-1.829-56.446-.733-84.13-5.029-12.13-2.143-25.233-.585-37.022-2.105-5.173-.676-6.109-5.387-.475-5.241ZM244.765,389.587c.026,9.746-.623,20.966-1.134,30.825-.175,1.736-.579,3.203-1.438,4.104-2.739,2.527-8.284.994-12.093,1.066-27.464-1.783-53.888-5.332-81.143-7.285-27.232-1.35-54.411-2.145-81.678-4.569-11.072-1.153-22.66-.443-33.707-1.801-2.557-.318-4.783-1.062-6.006-2.667-3.121-5.049-.707-12.822-.888-18.198-.255-8.289-.329-16.774-.33-25.384-2.519-30.279-1.487-60.586-.813-91.066-.977-13.9-.398-28.656.115-42.599-.802-24.872-1.076-51.094-.943-75.755.109-8.262.214-17.348.257-24.781.118-2.793.471-5.379,2.228-6.484l.449-.263c23.283-1.497,50.175.864,73.967.755,39.355-.241,77.998,2.675,117.207,3.924,6.676.346,13.845-.676,20.439-.927,1.948.067,3.557.579,4.532,1.75.996,1.149,1.354,2.961,1.373,5.01-.041,11.083-.824,22.126-1.43,32.981.434,21.679,1.994,42.759.324,64.953-.122,25.696,1.186,52.225.945,77.805-.214,12.407,1.082,24.069.829,36.15-.309,14.744-2.113,27.976-1.063,42.457ZM244.898,122.988c-29.143,1.93-59.825.654-88.934-1.773-36.708-1.295-74.751-1.844-111.975-1.674-11.141.577-22.271-.081-33.459-.346-5.859-.391-5.657-9.298-2.714-12.459l.419-.251c2.863-1.018,6.568.921,9.762.998,15.392.2,31.084,1.552,46.107,3.339,22.099-.757,44.918.382,67.161.741,23.004-.631,46.877.188,69.717-.994,14.053-.676,28.678,1.303,42.538.929,9.016-1.133,8.687,10.209,1.379,11.49ZM345.302,527.155c-.262,2.969-2.887,4.391-5.078,5.923-1.761,1.153-2.499,3.23-3.331,5.152-1.727,4.5-6.468,6.694-10.759,8.878-10.489,4.124-20.295,8.825-29.791,14.914-6.154,2.532-12.849,5.298-18.188,7.961-5.376,1.222-11.667,8.616-16.97,4.025-2.635-3.962-6.594-5.496-7.084-10.492-1.885-10.727-1.506-22.219-1.883-33.337,1.207-8.924.542-17.743-.744-26.72-.259-10.535.082-21.806.147-31.951,1.194-24.811,1.622-49.242-.875-74.124,1.827-25.204,2.041-51.379.757-76.413-1.129-24.959.382-50.199-2.125-75.31,1.683-20.987,1.803-41.733.937-62.782.689-13.967-1.323-29.652-.95-44.106.368-9.005,6.786-16.013,6.015-25.123,2.051-9.489,11.815-15.602,18.162-22.343,5.77-4.964,11.195-10.743,17.212-15.669l.506-.421c17.224-15.136,32.644-33.181,46.691-51.225,4.555-6.17,10.599-3.128,10.347,3.752-.49,11.427-2.714,23.526-1.766,35.105,1.858,20.533,1.112,40.417,1.052,60.951-.98,32.117.472,64.535.774,96.615-.813,35.559-1.102,70.84-.139,106.425-.709,28.632.189,59.144.882,87.478-1.367,37.408-1.714,75.531-3.801,112.836Z"/>
  <path d="M321.694,383.115c-1.973-.718-4.76-1.538-6.13-2.961-.5-.607-.266-1.315.3-2.107,3.921-4.322,2.121-11.132-.555-15.798-1.989-4.144-6.453-6.836-9.729-9.015-1.45-.907-3.416-1.008-4.516-2.218-1.478-2.246-4.576-5.694-3.759-8.26,2.176-3.145,5.528-.591,8.27.52,3.649.55,5.203,6.212,8.987,7.097,2.252.186,3.7-2.483,3.381-4.5-.107-2.784-6.977-9.766-.666-9.098,7.563.627,7.587-7.342,3.744-11.553-2.885-4.025-7.928-2.691-11.415-.13-1.65,1.261-3.437-1.686-4.262-2.612-1.994-2.232-4.07-4.482-5.751-6.983-1.085-1.615-1.97-3.424-2.277-5.36-.244-1.536-.134-3.264-.112-4.824.023-1.625.148-3.416,1.117-4.786,1.095-1.765,3.703-2.958,3.775-.907.086,1.678-.633,3.381-.63,5.11-.712,4.581,1.011,7.249,3.885,10.075,8.668,8.54,14.23-4.61,10.464-11.891-1.735-2.918-2.744-5.937-5.077-7.809-1.944-1.672-4.337-2.536-6.411-3.98-.932-.648-1.448-1.821-2.196-2.708-.76-.903-1.588-1.748-2.343-2.655-1.491-1.795-2.217-3.521-2.33-5.822-.048-.977-.286-3.849,1.597-3.606,5.378.692,9.796,4.885,14.626,7.17,3.308,1.783,1.809,5.66,2.236,8.75.283,2.07-.357,5.666,1.826,6.579,2.317.52,3.073-2.892,2.371-4.458l-.114-.595c-.957-10.699,4.098.255,7.461-6.119,2.611-4.727-4.402-6.253-6.632-8.813-1.267-1.635.312-4.268.01-6.229-.199-1.649-1.919-3.039-3.446-2.121-1.904,1.293-1.71,4.033-4.211,2.851-5.418-2.857-16.027-9.207-19.479-.977-1.787,2.904-2.77,6.386-1.396,9.916.768,3.238,3.886,6.391,5.021,9.041-.574,2.357-3.096,3.833-3.649,6.049-1.334,5.346-3.454,11.055-1.6,16.547,1.053,3.118,3.546,5.844,5.699,8.26,1.154,1.295,2.344,2.558,3.499,3.851,1.023,1.147,1.949,2.554,2.99,3.612,1.315,1.332,3.64,2.857,3.119,4.966-1.469,2.032-5.066-2.572-6.841-2.874-5.911-1.449-9.671,5.792-8.585,10.638.333,1.957,2.766,6.902,2.978,8.519.025,1.71-2.362,2.936-2.947,4.302-1.161,2.576-1.253,5.644-.082,8.408.619,1.669.549,3.106,1.146,4.444.416.965,1.505,1.926,1.664,2.916.147,2.171-3.036,2.568-3.378,4.739-1.138,4.282,1.001,8.89,2.991,12.225-.007.935-1.082,2.001-1.667,2.823-3.703,3.968-.976,10.907.463,15.226-.091.898-1.23,1.576-2.083,2.388-1.374,1.471-1.66,3.369-1.604,5.435.404,3.602,2.161,6.915,4.942,9.1,2.476,1.674,6.436-.233,3.945-3.363-1.323-1.441-1.923-3.989.547-4.401,2.139,0,3.181,2.003,4.864,3.106,1.494,1.072,3.082,2.064,4.303,3.238,1.476,1.287,3.09,3.507,4.494,3.817,1.415.299,4.206-.87,5.349-2.507,2.087-2.914-2.903-3.24-3.157-5.421-.143-1.024.865-2.165,1.406-3.044,1.527-2.608,1.751-5.209,1.182-7.791-1.844-9.06-8.819-16.729-17.431-19.548-.71-.694-.772-1.997-1.316-3.177-1.141-2.042-1.209-3.61,1.223-2.979,5.408,1.303,10.036,4.454,15.226,6.554,3.81,1.467,7.108,1.846,10.065,4.604,1.225,1.038,2.509,2.455,3.945,2.936,3.812,1.04,4.453-4.274,2.284-6.393-2.734-2.291-6.279-3.869-9.615-5.419ZM314.701,328.606c2.056-.447,3.405,2.598.982,2.321-1.958-.225-2.804-1.926-.982-2.321ZM306.42,300.644c.75-.648,2.902,2.313,3.213,2.797.632.983,2.67,4.988,1.004,5.816-.966.48-2.535-.552-3.287-1.07-1.082-.743-1.956-1.89-2.082-3.228-.132-1.402-.004-3.315,1.153-4.316ZM300.327,394.842c2.389,2.046,5.774,5.174,7.642,7.655,1.669,2.218,3.742,6.257,2.158,9.066-1.661,2.95-3.789.067-5.435-1.174-1.089-.822-2.288-1.21-3.272-2.313-1.343-1.504-4.739-7.821-5.045-9.766-.212-1.348-.303-3.91,1.33-4.393.701-.208,2.082.463,2.622.925ZM311.624,373.404c-1.166,5.235-5.146,1-7.952.607-2.176-1.243-6.491-10.296-7.004-12.906-.362-1.839.318-2.024,2.031-2.129,2.177-.134,6.108,2.246,8.034,3.475.914.583,3.82,5.561,4.203,6.722.424,1.283.99,2.869.687,4.231Z"/>
  <path d="M331.304,140.466c-1.891-.72-4.79-.672-6.57-.589l-.548.152c-3.774,2.252-9.904,12.368-3.652,14.882,3.251-.172,1.274-3.564,1.69-5.583.599-2.906,3.704-2.706,5.822-1.789,3.173,1.374,4.985,4.573,5.335,7.928.92,8.813-2.887,13.056-11.497,11.599-3.197-.826-4.976-4.207-8.14-4.972-2.935-.89-6.655-2.556-9.557-1.095-6.345,1.384-8.543,7.558-8.66,13.503-.112,1.597.636,3.916-.401,3.798-.682-.057-1.654-1.352-1.657-2.513-.054-2.621-.419-5.609-.519-8.499-2.459-8.967-5.638-19.702-14.603-23.882-4.049-1.724-8.195-1.158-12.321.344-3.343.985-5.739,4.691-6.879,7.837-.782,14.75,13.892,26.568,26.472,32.357,3.023,1.538,1.688,4.626,1.363,7.329-.107,3.539-2.105,6.996-2.781,10.227-.397,2.291,1.443,5.142,3.642,3.452,2.103-3.215,3.255-7.57,4.417-11.326.551-2.018.539-5.025,3.06-5.017,7.388,3.183,16.445,6.403,22.602,11.545,2.879,2.177,7.126,4.112,9.411,6.811,1.788,2.299,2.069,4.675,2.693,7.329,1.34,1.951,3.85-.334,3.833-2.163,2.467-9.025-6.715-16.124-13.926-19.819-5.842-2.495-9.395-4.373-14.396-8.37-4.031-3.638-8.189-15.201,1.406-13.825,8.275,1.793,16.494,9.624,24.983,4.551,3.06-2.36,6.066-5.962,7.523-9.715.624-2.679.21-5.11.62-7.763-.413-5.672-3.187-13.864-8.765-16.721ZM287.794,173.602c-.542.459-2.831-.403-3.4-.605-2.269-.809-4.392-3.126-6.439-4.438-2.337-1.497-4.74-2.997-6.524-5.166-2.558-3.108-4.417-7.168-3.936-11.273.613-5.227,6.535-4.541,10.053-2.821,3.673,1.797,5.602,5.615,7.113,9.209,1.801,4.286,3.272,8.896,3.384,13.582.013.538-.142,1.002-.251,1.512Z"/>
  <path d="M300.047,454.581c3.636.15,7.082,1.995,10.588,3.434,2.248.595,4.05,2.378,6.12,2.94,3.078.087,2.866-5.668,1.597-7.402-.602-.68-1.467-1.247-2.315-1.562-5.187-1.455-11.102-4.124-15.823-6.571-1.99-1.117-3.055-3.327-3.553-5.36-.318-1.228-1.199-3.133-.102-4.08.72-.518,2.095.075,2.911.423,4.878,2.643,13.045,6.575,19.014,4.284,1.538-.741,2.731-2.534,2.509-4.252-.338-1.989-1.782-5.913-4.353-4.806-1.563.88-1.224,3.477-2.96,3.394-4.386-.297-7.62-3.274-10.529-6.01-5.784-4.685-12.199-3.068-12.253,4.778.041,1.595.039,4.458-.487,5.634l-.161.105c-3.023-7.123.173-16.761-6.293-22.79-3.221-3.29-7.306-.415-9.677,2.386-3.342,3.383-2.612,9.997-1.18,15.456,1.595,5.419,5.007,8.809,9.655,11.65,2.491,1.779,1.496,5.186,1.851,7.702.408,2.113-1.331,3.972-1.747,6.227-.168,4.725-.57,9.598-3.087,13.779-1.172,2.766-4.421,7.378-4.589,9.875.277,1.617,1.561,3.529,2.748,4.053,1.617.494,2.325,2.38,3.848,2.884,3.458.279,4.063-4.79,4.415-6.971.783-2.627,2.201-5.381,2.249-8.141-.292-7.178,1.297-14.22,1.486-21.363-.031-1.651-.598-4.436,1.739-3.93,3.056.85,5.877,2.758,8.382,4.233ZM280.773,433.584c-.431-.49-3.034-3.657-3.099-3.942-.115-.51-.277-3.659-.199-4.205.106-.739,1.581-3.636,2.264-3.835.617-.182,1.018-.042,1.4.445.347.445,1.473,3.543,1.618,4.209.329,1.516.779,4.976.932,6.595.366,3.879-1.156,2.734-2.916.733Z"/>
  <path d="M302.675,220.809c.684,6.433,3.814,14.331,11.192,10.814,2.126-1.975,5.145-4.725,4.852-7.884-.028-1.224-.481-2.475-.879-3.636-1.707-3.81-2.161-8.129-4.78-10.731-4.157-4.632-8.011-7.584-14.399-7.461l-.565.049c-2.549.018-5.101,1.864-5.953,4.565-3.735,4.664-4.578,11.994.219,16.334,1.078,2.762,3.134,5.16,4.386,7.957,2.43,6.623,8.915,12.741,12.86,19.028.488.87.822,1.787.548,2.341-1.988,1.795-6.371.68-8.572-.609-1.357-.981-2.207-2.993-3.157-4.361-.624-1.032.46-1.947,1.232-3.197.797-1.226.591-2.849-.775-3.503-2.418-1.091-4.999,2.09-6.254,3.685-2.508,6.136.645,15.487,7.359,17.66,1.907.781,3.546.103,5.473-.265,2.69-.247,6.196-.006,8.352,1.803,1.575,1.105.994,4.377,2.992,5.324,5.499.698,3.661-8.487,2.18-11.567-2.674-11.482-13.941-18.666-17.633-29.854-3.156-3.829-5.761-11.172-3.028-15.992,1.346-1.953,4.496-.257,4.565,1.803-.176,2.639-.826,4.871-.215,7.696ZM307.153,215.432c1.214-.221,3.128,4.187,3.5,5.172.171.451,1.122,3.015,1.158,3.23.105.627-.439,2.969-1.099,3.173-2.634.809-4.041-5.296-4.211-7.107-.077-.82-.264-4.3.651-4.468Z"/>
  <path d="M263.146,406.359c4.799,5.727,9.729,2.789,12.192-3.056.484-5.923,2.942-11.921,2.931-17.868.121-.625.417-1.157.767-1.263,2.751,2.546.59,9.646.402,13.222-.225,1.461.083,2.904-.245,4.144-.231,1.03-1.4,1.793-1.238,2.841.139,1.06,1.761,2.155,2.701,1.823,1.825-.66,2.217-3.216,2.522-4.94.824-8.748,3.968-18.324.057-26.351-3.054-3.392-9.214-2.226-10.112,2.576-1.139,5.178-1.481,11.106-2.29,16.16.043,1.338-1.108,2.07-2.053,3.108-3.627,6.817-4.005-3.24-3.608-5.458-.106-1.36-.572-2.954-.233-4.413.557-2.198,1.541-4.282,2.047-6.435,1.364-2.252,5.758-9.622.252-9.424l-.579.146c-3.4,1.858-5.258,6.809-5.655,10.49-2.973,7.694-2.344,17.698,2.141,24.7Z"/>
  <path d="M276.63,340.843c-1.456,1.275-4.107,3.723-5.022,4.444-1.074.765-3.485,1.667-4.914,2.687-.961.706-1.661,1.669-2.753,2.042-1.287.336-2.905,1.026-2.804,2.564.202,2.141,2.208,3.972,4.371,4.14,1.971.425,5.388,2.659,8.251,4.395,2.906,1.564,5.82,4.713,8.94,5.804,2.594.935,3.076-3.009,1.117-3.952-1.787-.945-3.792-1.597-5.155-3.205-1.334-1.613-3.723-2.368-4.878-3.76-1.366-3.179,3.145-4.733,5.392-6.874,2.721-3.149,4.449-3.102,5.893-6.117.392-.832.145-1.392.03-2.319-.062-1.499-.174-3.596-1.774-4.535-2.12-.983-8.619-3.966-8.787-6.384,1.908-2.36,5.056-5.603,6.92-8.321,1.455-1.536,3.539-2.78,4.03-5.061.584-2.368.358-7.23-2.917-6.876l-.444.182c-3.127,8.809-14.004,11.87-18.397,19.315-1.046,2.244.961,3.752,3.17,3.877,3.302.528,5.807,2.256,8.835,4.13,2.365,1.467,2.96,2.295.898,3.823Z"/>
  <path d="M263.555,276.852c1.709,7.168,2.319,15.487.595,22.95-.464,2.402-1.568,6.297,1.183,7.556,4.109.981,3.902-4.674,3.785-7.321.518-4.691-.755-9.361.834-13.898.157-1.453-.707-3.357.083-4.328.579-.818,2.222-1.259,3.197-.828.193.221.581.662.774.882.293,3.396.001,7.216-.444,10.624-.327,2.038-1.569,4.834-.012,6.686.871,1.085,2.055.761,3.005.071,2.627-3.754,1.284-8.892,1.442-13.279-.064-2.107-.597-5.988,2.254-5.984,2.038,1.176,1.182,3.968,1.505,6.038.436,4.97-1.745,9.808-1.05,14.809.076,3.865,4.246,4.167,5.384.666.329-1.793-.732-3.663-.205-5.545,1.162-4.721-.087-9.47-.425-14.102.053-2.06.749-3.725.524-5.976-.476-2.525,1.357-6.336-2.148-6.168l-.654.065c-1.732.32-3.508.728-5.252,1.026-4.821,1.402-15.386-2.185-14.376,6.055Z"/>
  <path d="M265.897,256.622c-.805,1.702-2.931,5.522.068,6.198,5.335-.941,11.394-.86,16.793-1.609,1.663.229,4.182.639,4.569-1.609.16-1.131-.789-2.048-.901-3.037.441-6.223-6.866-2.078-10.368-2.341-4.519.921-2.941-1.704-1.289-3.847,3.045-5.688,5.159-12.099,8.915-17.358,2.015-3.043,5.996-9.509,1.342-11.741l-.498-.02c-3.803.824-7.766,1.425-11.71,1.645-1.968.15-4.565-.158-6.264.921-2.346,1.835-2.448,6.777.343,8.315,3.166,1.034,7.763-.344,10.85-1.431,5.335-1.587-2.991,8.24-3.872,9.477-2.855,4.98-5.967,10.877-7.978,16.436Z"/>
  <path d="M315.225,480.08c-6.351-5.571-12.019-13.37-14.087-21.412-.173-.674-.814-1.38-1.495-1.692-2.733-.834-4.386,2.228-3.505,4.658.683,3.238,2.668,5.99,4.521,8.657,1.797,2.588,3.207,5.282,5.516,7.459.624.589,3.121,2.064,2.849,3.135-.156.609-3.113,1.7-3.798,1.809-.88.136-2.71.168-3.589.063-1.49-.18-3.947-2.497-4.015-4.017-.034-.767.116-1.756.636-2.364.633-.739,1.81-.743,2.001-1.902.102-.617-.218-1.232-.63-1.704-1.329-1.518-3.265-1.898-4.832-.775-9.447,6.779,3.468,25.074,13.14,18.987,1.684-1.06,4.017-3.013,6.108-3.037,1.453.142,3.102,1.36,3.635,2.762,1.051,1.499,3.493.846,4.351-.901,1.587-4.339-4.219-7.123-6.805-9.725Z"/>
  <path d="M323.84,464.569c-1.558-.799-3.192.103-4.332,1.192-1.456,1.392-1.09,2.457-1.101,4.361-1.55-.061-2.046-1.85-3.65-.372-2.405,2.216,1.535,5.217,3.8,5.458.829.087,3.236-.437,4.05-.763,3.924-1.58,5.665-7.603,1.233-9.877Z"/>
  <path d="M270.083,555.006c-1.25-.773-2.349-1.85-3.855-2.214-.968-.235-4.592-.733-5.427-.54-.691.16-2.148,1.623-2.304,2.305-.816,3.549,2.288,2.673,4.311,3.355,2.454.83,3.118,2.523,6.474,2.772,2.105.154,3.539-1.718,3.231-3.732-.238-1.554-1.461-1.346-2.429-1.945Z"/>
  <path d="M199.422,166.572c-15.662,1.336-31.626-1.366-47.289-.771-9.085-1.212-18.333-1.421-27.216-1.943-6.761-1.238-14.271-.239-21.074-.609l-.556.053c-10.504,1.799-22.552.567-33.28,1.273-2.815-.486-9.306-2.07-7.254,3.09,2.247,6.876-.643,14.529-.929,21.464-.672,7.246.432,14.244-.806,21.187-.03,3.825,1.07,7.186.097,11.008-.218,15.778-.533,30.585-.536,46.253-.422,15.11.672,30.625-1.305,45.612-.087,11.798,1.073,24.322-.637,36.038-.359,7.742-1.33,17.077,1.468,24.411,1.814,2.521,4.68.484,7.121.947,13.079,2.784,26.964,1.52,40.239,2.236,8.045,2.258,16.657,1.048,24.863,1.028,4.293.299,8.323,1.605,12.619,1.445,1.84.004,4.097.89,6.479,1.123,2.487.121,4.629-.344,7.453-.016,5.223,1.105,9.752.524,14.945.656,3.169.504,5.755.384,8.878.255,4.248.034,7.799,2.001,11.777,1.74,2.94-.409,5.16,1.058,8.019-.37,2.016-.892,2.478-2.681,1.883-4.472-3.704-16.911,1.257-34.67-1.403-51.656.394-4.814.706-9.549.665-14.428.915-4.689.172-8.317,1.215-12.961.241-1.251.251-2.459.187-3.689-.303-2.02-.591-4.276-.251-6.714.059-5.828-.716-11.456.357-17.172-.919-9.126-.257-17.911-.477-27.175-.619-22.258-.332-44.954-1.183-67.483-.319-1.765.315-3.895,1.716-5.613,1.645-3.357-2.848-4.596-5.784-4.749ZM191.271,223.978c1.151.127,2.37.289,3.269,1.018.775.631,1.355,2.084.413,2.766-.838.607-3.446.071-4.446.063-3.401-.03-6.803-.024-10.204.016-6.802.081-13.602.3-20.395.66-13.536.714-27.043,1.979-40.477,3.792-7.485,1.012-14.947,2.19-22.378,3.541-4.333.789-8.117,1.897-12.639,1.314-.411-.053-.879-.155-1.075-.52-.189-.352-.034-.781.121-1.149,1.058-2.498,1.694-5.135,3.848-6.938,2.692-2.254,6.644-.888,9.846-.767,3.172,0,6.081-.929,9.145-1.62,3.114-.702,6.174-.261,9.354-.293,5.726-.056,11.447-.556,17.096-1.494,2.711-.45,5.213-.976,7.962-1.129,2.94-.164,5.882-.304,8.825-.414,13.911-.517,27.887-.368,41.736,1.154ZM88.324,246.654c4.813-.273,9.302-1.54,14.107-1.987,5.538-.516,11.079-.99,16.624-1.427,12.895-1.014,25.806-1.815,38.727-2.398,6.461-.293,12.924-.532,19.388-.716,1.736-.049,18.785-1.172,19.009-.389.295,1.034-.451,2.133-1.414,2.61-.963.476-2.081.484-3.155.482-12.107-.006-24.215.299-36.306.917-12.863.656-25.708,1.667-38.516,3.029-3.202.34-6.401.71-9.599,1.087-2.461.289-4.772-.079-7.245.219-.113.016-.226.024-.339.04-1.366.19-2.724.427-4.079.684-.449.085-.897.17-1.346.257-1.272.251-2.545.504-3.817.755-1.17.231-2.337.443-3.503.639-.417.071-.836.132-1.255.196-1.362.206-2.721.384-4.075.478l-.257-.107c.782-1.989,4.646-4.8,7.052-4.369ZM196.052,235.757c-8.096-.771-16.866-.419-24.809.269-4.87-.728-10.685.728-16.031,1.447-7.616.69-15.128,1.018-22.856,1.111-15.216,1.568-30.819,2.825-45.863,4.221-1.665.243-3.656-1.101-1.559-1.866,1.915-.38,4.267-.346,6.093-.437,4.446-.68,8.861-1.471,13.27-2.357,21.498-1.297,43.689-4.592,65.159-6.445l.622-.067c4.869-.372,10.349.992,15.176.538,2.111.253,13.869-1.046,12.905,2.538-.233.733-1.102,1.052-2.105,1.048ZM80.932,345.681c.79-.854,1.311-1.672,2.435-1.894,1.591-.257,3.678.085,5.381.125,9.237.696,18.982-.753,28.103-.903,6.981.692,13.926-.376,21.064-.793,3.219.783,6.209.297,9.45-.225,12.651,1.271,25.892-1.704,38.312,1.858,3.54.059,6.532-.093,10.181.042,1.407.241,1.612,1.667,1.565,3.473.306,5.846-6.875,3.074-10.467,3.58-2.75-.376-4.96-1.281-7.782-.862-2.235-.198-4.48-.763-6.515-.461-10.75-.941-22.345.378-33.194-.332-9.044.049-18.512.113-27.299.425-7.89-.858-16.375-.306-24.298-1.833-2.343-.251-7.027.886-8.844.087l-.079-.219c.067-.417,1.229-1.184,1.988-2.068ZM84.913,336.844c1.879-.674,2.74-2.392,3.35-3.029l.352-.073c.764.071,1.777,2.078,3.04,2.109,1.676-.069,3.833-1.109,5.768-.611,5.05.941,11.84-1.309,17.094.002,2.697-.354,5.13-.933,8.179-.733,15.23-.411,30.357,1.247,45.262,1.218,1.507-.111,3.283.382,1.648,1.109-.916.085-1.937-.389-2.765-.358-2.104.526-3.903.429-6.022.148-9.626.963-19.382-.467-28.91,1.186-7.449.214-15.206-.846-22.539.955-5.912-.334-11.67.733-17.682,1.283-3.23-.55-16.478,1.19-6.775-3.207ZM158.124,327.181c-25.326.735-50.213.761-75.251,2.762-4.918-.247,4.786-3.424,6.154-4.078,3.134-.856,3.157-2.272,5.43-3.383,10.293-.453,21.232-1.319,31.666-1.742,5.239.955,10.21-.476,15.504-.51,18.351.662,36.753,1.562,55.134,1.287l.322.372c1.412,4.102-4.106,4.772-7.102,4.731-10.719.257-21.321-.37-31.857.561ZM83.836,297.244c1.648-1.182,2.883-2.572,4.902-2.685,4.794.057,11.568-2.082,16.667-2.246,4.73.111,10.17.374,15.021.878,10.098,1.176,20.131-.811,30.172.091,3.715.257,7.799.641,11.268-.556,9.155-.826,18.116-.931,27.514-1.661,1.443.049,2.266.71,3.705.82,1.597.21,3.95-.813,4.962-.291l.381.322c1.532,5.021-7.102,2.604-9.888,3.187-4.472.866-8.806.263-13.275,1.441-12.571.415-25.339,1.319-38.183.929-18.073,1.157-36.738,2.36-54.665,2.969-4.974.625-.304-2.325,1.419-3.201ZM195.968,285.934c-6.23.546-12.896.178-19.584.637-8.61-.941-16.812,2.013-25.302,1.694-7.227-.898-14.49-.008-21.684-.022-8.258-.302-16.527-1.188-24.885-.403-2.448-.397-23.478,5.87-21.631,1.552,1.924-1.657,4.178-4.134,6.462-5.176,7.181-.971,15.987-1.285,23.379-1.327,18.481-1.046,37.233-1.224,55.717-2.094l.652-.01c5.257.334,12.165-.324,17.482.666,3.319-.692,7.409-1.016,10.819-.423,2.424,1.158,1.016,4.721-1.426,4.905ZM81.066,270.15l-.208-.227c.494-1.408,2.292-2.068,3.363-3.118,1.046-.913,1.882-2.272,3.179-2.702,7.568-.348,15.371-1.823,23.057-1.92,18.223.391,36.293-2.936,54.549-2.695,2.927-.014,5.927.492,8.77.132,2.54-.7,4.318-.275,6.903-.374,5.243-.528,11.124.158,16.335-.482,2.247.14,2.31,4.642-.2,4.782-4.658.182-9.233,1.085-13.831.508-2.346.304-4.883-.168-7.085-.35-1.475.089-3.375,1.095-5.141,1.24-9.317.184-17.998.609-27.487.423-15.121,1.198-30.869.971-46.023,3.729-5.236,1.218-11.08,1.9-16.181,1.054ZM197.416,252.711c-6.407,1.617-13.443,1.127-19.982.826-4.093.979-8.15.53-12.396.423-20.263.775-40.899,2.827-61.273,3.673-2.228.018-29.405,6.496-22.226-.188,2.606-2.831,4.981-3.213,8.311-3.8,14.588-.838,28.81-3.948,43.783-4.387,15.36-1.645,30.914-.807,46.279-2.716l.61-.032c5.079.439,11.924-.405,17.082.212,1.875,1.036,1.989,5.205-.187,5.988ZM196.435,368.768l-.302.257c-20.4-2.173-41.276-4.31-61.817-5.591-17.171-.441-34.027.423-51.501-1.979-6.645-1.874-11.804-2.258-1.81-5.29,1.253-.445,2.442-1.117,2.889-2.056.488-.971.808-1.791,2.079-1.92,1.834-.17,3.81.314,5.407.526,22.037,2.471,44.205,1.854,66.786,1.894,11.724-.467,23.044,1.803,34.735,1.811,1.977-.279,4.752-.214,4.556,2.4.009,2.906-.409,7.323-1.021,9.948ZM197.111,337.991c-1.535.496-3.905.034-5.537.528-2.766-.822-5.694-.271-8.481-.5-1.148-.093-2.951-1.034-4.175-1.188-.908-.115-7.388.328-7.379-.627,1.03-1.421,2.142-.755,3.274-.828,3.06-.198,5.926-.255,8.971-.518,2.369-.204,6.358.86,8.228-.269,1.465-.884.902-2.281,1.428-2.821.646-.664,3.079-.194,3.563.573.478.757,1.194,5.298.109,5.65ZM175.076,315.997c-15.179.352-30.818-1.671-45.816.103-2.961-.348-5.402.652-8.353.623-10.187-.409-21.862,2.756-32.125,1.789l-.125-.196c-.013-.37,1.135-1.22,1.739-2.074.736-.866,1.167-1.582,2.328-1.651,13.273,1.02,26.667-1.089,39.883-1.058,14.397-.573,28-.981,42.011-1.576,5.264-1.058,10.515-.747,15.741-1.115,2.11.156,7.358-2.052,7.541,1.55.229,6.909-17.832,2.827-22.826,3.604ZM197.239,304.74c-1.277-.03-3.095-.253-4.516-.042-4.384.712-8.684,1.121-13.058,1.141-2.38-.19-5.035,1.038-7.675,1.048-5.736-.478-11.175.225-17.003.202-24.655,1.147-49.463,3.163-73.916,3.695l-.195-.231c.182-.615.865-1.044,1.325-1.417,2.211-.935,2.828-3.845,5.123-4.547,2.271-.49,4.314-.214,6.602-.14,21.292-.745,41.963-2.125,63.209-1.631,4.571-.809,9.184-.275,13.537-1.125,1.362.045,3.036.609,4.519.382,5.362-1.716,11.159-.923,16.776-1.238,2.131-.04,4.273-1.093,5.977.33.795.415,1.36,3.608-.704,3.574ZM197.898,275.09c-10.814,1.378-22.445-.016-33.386.259-6.704,1.463-13.869-.237-20.52,1.026-18.743.609-37.107,1.674-55.673,4.197-1.933.484-7.442.88-2.954-1.53,3.887-1.265,5.024-4.282,7.953-5.69,15.036-2.349,30.274-1.799,45.843-2.542,13.924-.401,28.11-.095,41.965-1.356,5.2-.326,10.814.846,15.799-.308l.539.014c2.194.111,1.972,5.241.432,5.931Z"/>
  <path d="M127.401,150.754c7.925.281,15.85.561,23.775.84,7.124.253,12.409.714,18.73-2.54.635-.326,1.393-.306,2-.67,1.081-.652,2.661-2.936,3.623-3.904.958-.963,2.731-1.469,2.794-3.292.028-.816-.841-1.641-.91-2.459-.052-.615.258-1.327.194-2.129-.194-2.461-1.947-3.608-4.286-3.75-1.103-.067-4.259,1.781-5.19,2.532-1.793,1.447-2.928,3.551-5.221,4.316-1.355.455-2.804.528-4.231.591-17.542.773-35.136.336-52.618-1.303-.573-.053.388-2.139.549-2.321.615-.698,1.765-1.022,1.997-2.062.571-2.554-1.665-3.638-3.902-3.169-1.479.31-3.3,2.183-4.424,3.102-3.65,2.983-3.278,2.892-5.336,7.046-1.223,2.469-3.121,3.734-.496,6.558,10.038,3.513,22.249,2.238,32.952,2.616Z"/>
  <path d="M50.333,349.257c-1.804.221-4.549,1.271-4.989,3.268-.185.842.337,4.428.666,5.304,1.336,3.549,7.992,1.714,8.698-1.769.64-3.155-.465-7.277-4.375-6.803Z"/>
  <path d="M216.552,280.46c1.118-1.257.617-1.89.971-3.157.351-1.257,1.247-1.89.732-3.375-.139-.403-1.67-2.501-2.045-2.809-.873-.722-1.637-.729-2.742-.54-4.448.755-5.605,8.54-2,11.11,1.571,1.121,3.93.067,5.084-1.23Z"/>
  <path d="M53.171,175.586c-.593-.095-1.514-.059-2.114.043-4.855.842-5.14,10.677.431,10.638,1.519-.012,4.268-2.501,4.943-3.806,1.002-1.937-1.062-6.52-3.26-6.876Z"/>
  <path d="M49.849,263.541c-4.382.593-4.635,4.373-3.032,7.761,1.826,3.861,7.872,3.066,8.409-1.168.158-1.245-.949-5.063-1.908-5.82-.915-.722-2.345-.927-3.469-.773Z"/>
  <path d="M77.816,158.444c.311-.219,2.628-2.916,2.674-3.153.549-2.833-1.42-6.306-4.673-5.646-3.75.761-4.64,6.712-1.642,8.817,1.141.803,2.486.793,3.642-.018Z"/>
  <path d="M76.433,381.064c-.534-.093-1.327-.16-1.836-.008-.763.227-2.403,3.058-2.348,3.924.06.929,1.801,3.568,2.591,3.989.987.526,3.562,1.024,4.622.593.432-.176,1.751-1.534,1.897-1.989.699-2.181-2.859-6.154-4.926-6.51Z"/>
  <path d="M213.715,358.466c-.974.188-3.113,1.671-3.421,2.667-.297.961.595,4.492,1.286,5.191,1.607,1.631,5.232,1.297,6.432-.629,1.455-2.335-.963-7.87-4.297-7.23Z"/>
  <path d="M185.149,160.133c2.986,1.676,6.441-1.823,5.692-4.725-.11-.425-.868-2.171-1.136-2.505-.567-.706-1.541-1.129-2.439-1.073-.793.047-3.145.635-3.57,1.305-.855,1.35-.179,6.081,1.453,6.998Z"/>
  <path d="M212.735,192.276c1.557.356,4.166-1.166,4.424-2.754.486-2.987-1.367-6.073-4.663-5.397-2.735.561-4.06,3.373-2.467,5.759.365.546,2.115,2.26,2.706,2.392Z"/>
  <path d="M186.772,386.881c-.831.115-2.828,1.597-3.348,2.256-2.459,3.112,4.394,7.591,6.423,4.966,1.427-1.848.959-3.242.82-5.403-.838-1.002-2.601-1.995-3.895-1.819Z"/>
  <path d="M172.927,527.226c-.751.136-1.191,1.105-1.864,1.313-1.042.322-3.998.472-4.866-.263-1.505-1.275-.242-4.288-.227-5.824.024-2.467-.342-5.162-.273-7.779.169-6.413,1.075-12.815.971-19.163-.028-1.706.06-3.416.02-5.12-.02-.846-.526-1.7-.126-2.536,1.739-1.354,7.573-3.126,3.254-5.692-1.736-1.03-2.618-.215-4.207-.401-1.65-.192-3.697-1.196-5.596-1.204-1.238-.004-3.095.486-4.37.504-2.121.028-3.583-.686-5.644.427-3.196,1.728,2.634,3.934,3.291,4.82.685.921.873,3.865.737,5.037-.102.882-.701,1.92-.705,2.695-.041,8.094,1.243,16.504-.539,24.473-.107.476-.52.862-.619,1.323-.549,2.556.432,3.97-3.205,2.616-3.547-1.321-9.863-5.314-13.092-7.546-.78-.54-2.906-2.018-2.956-2.888-.047-.82,1.04-4.209,1.361-5.219,2.138-6.735,4.932-12.176,8.165-18.303,2.81-5.326,5.297-11.178,9.91-15.341,4.072-3.673,9.709-4.205,14.493-1.613,1.503.815,2.426,2.125,4.323,1.989,1.472-.107,2.616-1.127,2.202-2.683-.326-1.222-3.691-5.492-4.826-6.105-8.856-4.794-15.632-4.268-24.028,1.06-6.562,4.163-10.144,11.239-13.648,17.917-.469.892-1.162,2.894-1.595,3.503-.396.556-1.094.601-1.393-.02-.912-2.742-2.532-5.393-4.063-7.833-2.782-4.436-7.184-10.966-10.778-14.716-3.991-4.165-11.594-6.84-17.305-6.121-1.806.225-6.269,1.854-7.715,2.965-.649.498-2.967,2.853-3.272,3.525-.52,1.147-.403,4.241,1.024,4.563,1.928.435,2.612-.7,4.25-1.228,6.647-2.147,10.606.868,15.129,5.399,3.417,3.424,5.395,7.845,8.164,11.747,2.58,3.634,4.437,6.055,6.792,9.962.575.953,2.148,2.157,2.159,3.43.01,1.174-1.324,3.901-2.816,2.809-2.975-2.855-6.166-5.48-8.972-8.509-4.492-4.847-7.257-9.833-12.761-13.945-3.355-2.507-10.742-4.482-14.931-4.98-3.175-.378-3.947,3.116-1.808,4.968,1.116.967,2.73.896,3.109,2.718.19.913.698,3.794.716,4.624.023,1.064-.615,2.074-.649,2.865-.174,4.092.067,8.43-.103,12.571-.037.905-.636,1.775-.646,2.459-.011.676.439,1.589.503,2.428.13,1.724-.362,3.62-.259,5.102.116,1.663,1.079,3.321.996,5.589-.032.868-.925,2.028-.982,2.944-.033.54.275,1.03.236,1.429-.078.803-.404,3.412-.592,4.021-.471,1.524-5.278,2.679-3.417,4.361.647.585,4.874.186,6.042.271,4.006.295,8.254,2.398,12.203,2.627,1.492.085,2.189-1.242,2.259-2.574.087-1.678-1.957-2.507-2.758-3.748-2.155-3.341-1.075-7.627-1.101-11.278-.023-3.367-.634-6.53-.501-9.952.074-1.892-.014-4.486.261-6.295.057-.378.517-1.477.864-1.582l.71.217c5.416,5.439,10.616,11.065,16.004,16.531.73.741,1.982,1.247,2.063,2.56.11,1.779-2.329,5.725-2.408,7.765-3.094,7.253-8.251,15.171-16.461,17.045-2.044.467-11.522.613-7.232,4.687,2.038,1.935,7.01,2.171,9.709,2.185,5.212.03,6.283-.949,10.651-2.967,2.574-1.19,4.166-1.18,6.229-3.483,3.241-3.618,5.862-7.985,8.365-12.03.515-.832,1.65-3.503,2.482-3.574.367-.032,1.236.512,1.613.724,2.625,1.481,4.788,3.037,7.628,4.268,5.926,2.568,12.253,6.54,18.871,6.621,3.142.04,7.075-.403,10.143-1.044,3.72-.777,6.822-2.145,8.926-5.399.927-1.433.732-5.11-1.522-4.699Z"/>
  <path d="M85.605,250.651c.419-.063.837-.125,1.255-.196,1.17-.196,2.338-.407,3.503-.639,1.272-.251,2.544-.504,3.817-.755.448-.089.897-.172,1.346-.257,1.355-.257,2.714-.494,4.079-.684.048-.006.096-.018.145-.024.066-.01.129-.008.194-.016,2.473-.299,4.784.069,7.245-.219,3.198-.378,6.396-.747,9.599-1.087,12.808-1.362,25.653-2.372,38.516-3.029,12.092-.619,24.199-.923,36.306-.917,1.074.002,2.193-.006,3.155-.482.963-.476,1.709-1.576,1.414-2.61-.224-.783-17.274.34-19.009.389-6.465.184-12.928.423-19.388.716-12.921.583-25.832,1.384-38.727,2.398-5.545.437-11.086.911-16.624,1.427-4.805.447-9.294,1.714-14.107,1.987-2.406-.431-6.269,2.38-7.052,4.369l.257.107c1.368-.095,2.723-.275,4.075-.478Z" fill="#f6e6c8"/>
  <path d="M160.827,332.902c10.517.722,21.2,1.805,31.511-.39.679-.145,1.517-.251,1.95.292.692.868-.497,1.985-1.519,2.418-2.686,1.138-5.492,1.995-8.355,2.552-5.176,1.007-10.487,1.028-15.76,1.047-24.378.084-48.757.169-73.135.253-1.816.006-3.702-.002-5.342-.782-1.186-.563-3.637-2.836-2.034-4.123.712-.572,1.938-.525,2.787-.6,1.337-.117,2.674-.229,4.012-.334,5.351-.422,10.71-.747,16.072-.976,10.662-.455,21.34-.53,32.007-.224,5.94.171,11.877.459,17.806.866Z" fill="#f6e6c8"/>
  <path d="M127.745,371.13c15.824.333,31.956,2.68,47.719,4.03.527.045,1.231.312,1.119.828-.091.415-.637.501-1.062.495-10.682-.13-21.36-.539-32.021-1.227-5.33-.344-10.656-.757-15.975-1.239-4.402-.399-8.815-1.505-13.188-1.623-4.999-.135-10.04-.125-15.064-.377-8.908-.447-17.817-.894-26.726-1.341-2.302-.115-4.929.18-7.174-.216-1.343-.237-2.671-.919-3.373-2.089-1.612-2.687.362-6.138.822-8.9.11-.661.465-1.499,1.129-1.412.435.057.692.502.884.896,1.902,3.92,2.261,7.787,7.042,8.369,17.128,2.084,34.969,3.76,52.227,3.766,1.211,0,2.425.014,3.64.04Z" fill="#f6e6c8"/>
  <path d="M191.271,223.978c1.151.127,2.37.289,3.269,1.018.775.631,1.355,2.084.413,2.766-.838.607-3.446.071-4.446.063-3.401-.03-6.803-.024-10.204.016-6.802.081-13.602.3-20.395.66-13.536.714-27.043,1.979-40.477,3.792-7.485,1.012-14.947,2.19-22.378,3.541-4.333.789-8.117,1.897-12.639,1.314-.411-.053-.879-.155-1.075-.52-.189-.352-.034-.781.121-1.149,1.058-2.498,1.694-5.135,3.848-6.938,2.692-2.254,6.644-.888,9.846-.767,3.172,0,6.081-.929,9.145-1.62,3.114-.702,6.174-.261,9.354-.293,5.726-.056,11.447-.556,17.096-1.494,2.711-.45,5.213-.976,7.962-1.129,2.94-.164,5.882-.304,8.825-.414,13.911-.517,27.887-.368,41.736,1.154Z" fill="#f6e6c8"/>
</svg>