<?xml version="1.0" encoding="UTF-8"?>
<svg id="a" data-name="Layer 1" xmlns="http://www.w3.org/2000/svg" width="5.12in" height="6.229in" viewBox="0 0 368.646 448.51">
  <g id="b" data-name="Irsfax">
    <g>
      <path d="M173.554,441.317c1.129.357,2.278.673,3.45.935,2.397.537,4.813.833,7.235.943,0-1.437.121-2.866.034-3.822-.11-1.212-.731-2.637-.746-3.887-.016-1.359.736-2.892.756-4.138.018-1.095-.504-2.789-.491-3.87.032-2.808.525-6.281.501-9.228-.014-1.636-.777-3.822-.768-5.34.007-1.176.656-1.907.481-3.613-.271-2.652.047-147.556.046-149.984,0-1.109-.467-2.777-.481-3.91-.017-1.315.499-3.293.471-4.575-.018-.788-.535-1.586-.506-2.432.031-.893.719-1.791.751-2.683.029-.844-.448-1.809-.493-2.667-.134-2.543-.198-5.227-.257-7.754-.032-1.368.495-2.401.495-3.408,0-.82-.508-1.676-.505-2.67.005-1.504.27-2.784.253-4.602-.027-2.879.349-6.769.018-9.484-.087-.717-.518-1.165-.518-1.934,0-.756.435-1.328.523-2.171.14-1.332-.012-3.642-.015-5.113-.004-1.93-.491-3.862-.505-5.334-.008-.914.524-1.743.515-2.664-.011-.998-.479-2.638-.444-3.651.035-.997.668-2.202.654-3.129-.02-1.386-.833-3.687-.944-5.369-.378-5.735-.498-11.489-.756-17.205-.312-6.898-1.158-13.713-1.672-20.662-.191-2.58-.964-6.535-.976-8.976-.011-2.185.64-4.358.487-6.798-.192-3.043-.36-6.086-.25-9.235.032-.911.505-2.056.473-2.882-.087-2.215-.634-5.336-.459-7.543.176-2.213.227-2.155.021-4.398-.2-2.178.531-4.144.473-6.035-.021-.685-.496-1.259-.502-1.946-.013-1.619.47-3.713.478-5.819.026-6.475.956-12.525.992-18.956.004-.764-.306-1.43-.266-2.164.063-1.166,1.273-3.151-.356-4.028-1.066-.172-1.889,1.101-2.933,1.223-.914.107-1.757-.394-2.649-.478-5.192-.489-3.176,1.516-3.02,4.967.257,5.673.044,11.64.245,17.224.023.651.599,1.487.694,2.221,1.225,9.47.879,19.373,0,28.847-.424,4.563-.579,9.519-.221,14.096.188,2.395-.264,4.779-.266,7.04,0,.939.468,1.885.461,2.674-.009.955-.721,2.064-.866,2.968-.395,2.448.954,5.043.68,7.963-.094,1.009-.76,2.125-.726,2.882.031.693.622,1.584.718,2.447.503,4.544-.839,9.756-.496,14.331.127,1.681.982,4.523.941,6.068-.015.571-.426,1.166-.463,1.93-.057,1.181.481,2.078.518,3.157.402,11.743.98,23.444.965,35.208-.006,4.728-.224,9.678-.013,14.314.124,2.696-.002,5.546-.008,8.261-.008,4.376.026,8.787-.455,13.117-.269,2.421.758,148.27.72,150.679-.034,2.135-.441,4.644-.497,6.785-.097,3.706-.091,7.886-.016,11.653.019.991.528,2.174.509,3.141-.021,1.086-.657,2.509-.731,3.657-.159,2.438.007,3.802-.286,5.826Z" fill="#f6e6c8"/>
      <path d="M60.893.006c1.185-.125,5.476,1.692,6.775,2.327,4.765,2.328,6.701,6.497,7.341,11.593.517,4.112-.819,8.631-2.361,12.408-.429,1.05-1.727,1.914-.672,3.249.469.593,2.943,1.234,3.834,1.506,3.643,1.111,12.86,2.603,15.362,4.787,1.839,1.606,3.131,2.618,5.291,3.934,4.268,2.6,9.354,5.557,12.548,9.542,1.454,1.814,3.222,4.203,4.576,6.105.706.992,1.246,2.963,2.459,3.367,2.681.892,3.36.671,5.6,2.896,1.689,1.678,1.869,2.821,2.943,4.582.436.715,1.121.907,1.525,1.388,1.45,1.726,1.486,6.214-.503,7.472-1.61,1.018-2.118.506-3.606.5-1.864-.007-4.203,2.585-6.327,2.918-2.468.387-5.373-.798-7.345-.303-2.668.67-4.964,3.733-7.571,4.808-.505.208-1.145.175-1.757.428-.946.391-4.148,2.576-4.604,3.407-.992,1.808-.492,2.69-.435,4.419.032.985-.858,1.816.504,2.651,2.284,1.4,5.595-.06,7.991-.71,3.9-1.059,8.119-1.067,11.964-2.601,3.461-1.381,6.093-2.042,9.652-2.972.816-.213,1.796-1.098,2.666-1.461,1.445-.603,2.525-.364,3.653-.717.474-.148.805-.695,1.272-.913,1.498-.697,3.781-1.358,5.415-1.625,5.659-.926,11.221-1.208,16.605-3.302.74-.288,1.324-.945,2.229-1.169,1.174-.291,2.219-.045,3.368-.273.921-.183,3.572-1.228,3.652-2.195.079-.962-.188-1.881-.002-3.139.305-2.065.124-2.543.203-4.393.038-.894.685-1.839.462-2.613-.26-.902-3.875-2.804-4.775-4.22-1.132-1.782-3.285-6.453-3.43-8.485-.06-.836.466-1.413.49-2.164.035-1.101-.446-2.281-.24-3.618.1-.65.793-3.042,1.013-3.842,1.159-4.208,2.047-5.172,4.932-8.176.418-.435.522-1.073.952-1.476.853-.798,3.693-1.762,4.909-2.374,2.011-1.012,1.463-1.067,4.09-1.028,4.506.068,14.993.53,18.568,3.281.831.64,5.05,5.272,5.542,6.11.22.373,2.113,4.145,2.169,4.384.28,1.207-.226,2.101-.211,3.106.067,4.502-.185,4.239-1.121,8.325-.615,2.685-.251,4.083-1.913,6.583-.69,1.038-2.247,2.585-3.273,3.281-1.038.704-3.846,1.336-4.248,2.549-.441,1.332-.04,5.462-.096,7.186-.022.669-.702,2.463.146,2.751.816.277,2.094-.475,3.121-.475,1.853.001,6.335,1.135,8.263,1.71,7.84,2.337,14.997,3.436,23.05,4.625,2.781.411,5.858,1.584,8.279,1.917,2.462.339,5.336.006,7.721.291,1.28.153,2.082.861,3.209,1.16,3.585.952,8.886.811,12.783,1.783,1.963.489,1.815.493,3.877.714.758.081,1.67.842,2.522.919.948.086,1.978-.348,3.128-.233.956.095,2.983.574,4.068.786,3.629.707,7.316.742,10.971,1.41.636.116,1.146.812,1.968.943,1.807.289,3.994-.332,6.236.078,1.606.294,3.189,1.359,4.489,1.58,2.982.505,5.031.194,8.312,1.155,3.157.925,5.593.958,8.573,1.623.682.152,1.308.937,2.294,1.105,2.065.351,3.833.063,6.188.609,2.413.559,4.415.759,6.801,1.21,1.645.311,2.838,1.258,4.958,1.597,3.884.62,7.312.446,11.25,1.373,5.656,1.332,14.467,4.356,20.055,4.728,2.788.186,1.931-.131,4.711.852,3.481,1.231,4.273.786,4.604,5.106.554,7.228-1.073,14.231-1.694,21.36-.183,2.106.169,4.435-.006,6.548-.176,2.127-.495,3.034-.484,5.347.013,2.612-.482,3.865-.713,6.091-.092.881.262,1.546.237,2.388-.036,1.218-.683,2.797-.744,4.13-.113,2.456-.052,2.89-.46,5.368-.624,3.789.014,5.676.233,9.197.125,2.004-1.048,4.358-3.1,4.928-.472.131-1.02,0-1.536.164-.497.157-.828.745-1.261.923-1.83.752-5.33-1.383-7.362-1.738-1.753-.306-4.181-.359-6.042-.519-6.652-.571-13.274-1.628-19.934-2.637-2.871-.435-5.923-.573-8.707-1.004-.748-.116-1.422-.822-2.018-.917-.602-.095-1.153.253-1.85.194-.703-.06-1.322-.593-1.986-.705-2.215-.374-4.518-.538-6.847-.922-4.158-.686-8.43-1.237-12.547-2.019-.926-.176-2.215-1.129-2.95-1.198-.675-.063-1.314.345-2.142.233-.646-.087-1.459-.683-2.313-.855-5.077-1.025-10.344-1.871-15.368-3.082-6.593-1.589-13.474-3.896-20.214-4.79-3.711-.492-7.805-.247-11.389-.749-2.795-.392-4.46-.516-7.299-.712-2.69-.186-4.959-1.533-7.312-1.672-.514-.03-.994.262-1.642.209-1.01-.083-2.16-1.06-3.296-1.338-4.153-1.016-7.579-1.906-11.624-3.184-2.127-.672-3.822-.984-5.975-1.551-2.972-.782-4.773-1.633-7.968-2.228-1.507-.28-2.959-1.525-4.805-.809-.765,1.015.235,1.897.438,2.747.669,2.794.778,6.228,1.215,9.223.491,3.374.217,7.489.566,11.085,1.382,14.24,1.247,28.746,1.205,43.237-.007,2.524-.274,5.295-.275,7.756,0,1.247.736,2.169.762,3.165.052,2.005-.515,4.509-.519,6.305-.003,1.231.531,2.651.53,3.882-.003,2.71-.272,5.554-.277,8.244-.011,5.931.191,11.801-.01,17.728-.041,1.202-.217,146.564-.224,147.529-.006.712.488,1.463.488,2.188,0,.78-.516,1.561-.492,2.417.019.664.428,1.312.447,1.949.057,1.933-.512,4.674-.452,6.55.022.685.496,1.259.501,1.946.006.712-.488,1.464-.488,2.188,0,.718.429,1.567.493,2.418.316,4.225-.44,9.276-.261,13.614.06,1.446.747,2.654-.021,4.085-.819,1.526-3.859,1.341-5.155.604-2.425-1.379-1.407-6.314-1.613-8.582-.11-1.212-.731-2.636-.746-3.887-.016-1.359.736-2.892.756-4.138.017-1.095-.504-2.789-.491-3.869.032-2.808.525-6.281.501-9.228-.014-1.636-.777-3.822-.768-5.34.007-1.176.656-1.907.481-3.613-.271-2.652.047-147.556.047-149.984,0-1.109-.467-2.777-.482-3.91-.017-1.315.499-3.293.471-4.575-.018-.788-.535-1.586-.506-2.432.031-.893.719-1.791.75-2.683.029-.844-.447-1.809-.493-2.667-.135-2.543-.199-5.227-.257-7.754-.032-1.368.495-2.401.495-3.408,0-.82-.508-1.676-.505-2.67.005-1.504.27-2.783.253-4.602-.027-2.879.349-6.769.017-9.484-.087-.717-.518-1.165-.518-1.934,0-.756.435-1.328.524-2.172.14-1.332-.012-3.642-.015-5.113-.004-1.93-.491-3.862-.505-5.334-.009-.913.524-1.743.514-2.664-.011-.998-.479-2.638-.444-3.651.035-.998.668-2.202.655-3.129-.02-1.386-.834-3.686-.944-5.369-.377-5.735-.498-11.489-.756-17.205-.312-6.898-1.158-13.713-1.672-20.662-.191-2.58-.964-6.535-.976-8.976-.011-2.185.64-4.358.487-6.798-.192-3.043-.359-6.086-.25-9.236.032-.911.505-2.056.473-2.882-.087-2.215-.634-5.336-.459-7.543.175-2.213.227-2.155.021-4.398-.2-2.178.531-4.144.473-6.035-.021-.685-.496-1.259-.501-1.946-.014-1.619.47-3.713.478-5.819.026-6.475.956-12.525.992-18.956.004-.764-.306-1.43-.266-2.163.063-1.166,1.273-3.151-.356-4.028-1.066-.172-1.889,1.1-2.932,1.223-.914.107-1.757-.394-2.649-.478-5.193-.489-3.176,1.516-3.02,4.967.256,5.673.044,11.64.245,17.224.023.651.599,1.487.694,2.221,1.225,9.47.879,19.373,0,28.847-.424,4.563-.579,9.519-.221,14.096.187,2.395-.264,4.779-.267,7.041-.001.939.468,1.885.461,2.673-.009.955-.72,2.065-.866,2.968-.395,2.448.954,5.043.68,7.963-.095,1.009-.76,2.126-.726,2.882.031.693.621,1.584.717,2.447.504,4.544-.839,9.756-.496,14.331.126,1.681.982,4.523.94,6.068-.015.571-.426,1.166-.463,1.93-.057,1.182.481,2.078.518,3.157.402,11.743.98,23.444.965,35.208-.006,4.728-.224,9.678-.012,14.314.123,2.696-.003,5.546-.008,8.261-.009,4.376.025,8.787-.456,13.117-.269,2.421.758,148.27.72,150.679-.034,2.135-.441,4.644-.497,6.785-.097,3.706-.091,7.886-.017,11.653.02.991.528,2.174.509,3.141-.021,1.086-.657,2.509-.731,3.657-.205,3.158.157,4.478-.677,7.819-.271,1.087.228,2.21-1.178,2.946-1.295.678-3.992-.291-4.756-1.494-.419-.66-.552-1.807-1.052-2.347-.525-.567-1.582-.932-2.301-1.826-1.668-2.072-.658-2.564-.713-4.607-.049-1.815-.734-4.151-.756-5.837-.017-1.257.63-1.874.754-2.906.507-4.245.179-11.612-.03-16.001-.079-1.656-.729-147.673-.725-149.257.002-.868.505-1.543.527-2.429.051-2.108-.781-4.316-.508-6.797.111-1.009.742-1.88.748-2.91.009-1.511-.718-3.861-.756-5.573-.038-1.72.509-3.171.514-4.624.007-1.898-.767-4.305-.765-6.313.002-2.496.766-5.901.696-8.25-.141-4.734-.797-9.294-.669-14.069.319-11.9,1.323-23.765,1.883-35.692.266-5.659-.025-11.533.03-17.238.02-2.102.558-4.644.273-6.804-.269-2.041-1.926-.464-3.059-.123-3.689,1.109-7.488,1.906-11.264,3.059-8.288,2.532-16.83,4.815-25.273,7.014-1.149.299-2.745,1.153-3.813,1.297-1.899.256-1.603-.061-3.744.614-6.028,1.9-12.306,2.829-18.341,4.478-3.467.947-6.758,2.116-10.261,3.091-3.307.92-6.659,1.932-9.968,2.898-6.156,1.797-12.666,2.853-18.514,5.277-6.168,2.558-10.819,2.577-16.98,3.898-3.969.851-6.827,1.7-10.978,2.131-4.818.5-10.453,2.326-15.28,3.413-1.192.268-3.392.658-4.353,1.231-.756.45-1.392,1.685-2.277,1.866-1.088.221-6.052-1.66-6.859-2.51-1.753-1.844-1.363-5.68-1.448-8.017-.241-6.582-.438-13.326-.656-19.93-.047-1.426.455-3.481.415-4.812-.027-.902-.671-2.03-.749-3.153-.143-2.044.57-4.596.479-6.547-.17-3.631-.512-7.614-.9-11.239-.155-1.447-.496-3.16-.552-4.545-.033-.822.208-6.307.378-6.681.106-.234,1.07-1.109,1.347-1.323,3.383-2.616,7.714-4.649,12.033-4.973.874-.066,1.604.318,2.334.181.855-.161,1.946-1.163,3.032-1.356,2.039-.364,4.366-.354,6.387-.896,1.14-.306,2.568-1.438,3.575-1.545.653-.069,1.187.273,1.853.196,2.51-.288,5.536-1.883,7.657-2.317,2.276-.465,3.02-.494,5.355-1.199,2.206-.667,6.067-1.468,7.897-2.784.856-.616,1.062-1.771,2.483-2.37,1.255-.528,1.4-.047,2.346-.081,1.498-.054,2.101-1.671,3.071-2.515,1.129-.982,4.02-2.68,5.435-3.547.722-.442,1.669-.294,1.966-1.19.127-.383.368-2.124.37-2.565.01-2.248-.543-5.354-.269-7.529.187-1.487,1.389-2.022-.026-3.846-.79-1.018-2.303-.962-3.379-1.233-3.942-.993-5.157-1.52-8.363-4.018-5.953-4.639-10.505-10.803-12.343-18.243-1.956-7.917-2.22-14.445.204-22.294.58-1.878,2.537-4.048,1.694-6.062-.484-1.155-3.92-.895-5.073-.996-.578-.051-1.048-.462-1.693-.448-2.347.05-6.026,3.201-8.284,1.442-1.075-.837-.86-2.72-.496-3.902.389-1.265,2.061-1.73,2.927-2.413,1.577-1.244,3.46-3.016,5.096-4.128.911-.619,2.363-.924,3.161-1.936.547-2.956,1.371-6.459,2.741-9.153.502-.987,3.775-5.477,4.532-6.149,1.103-.979,6.24-3.881,7.645-4.248,1.204-.314,1.789.16,2.767.115.747-.035,1.755-.578,2.528-.659ZM59.441,6.334c-4.601.297-9.022,3.425-10.684,7.764-.351.918-1.731,5.427-1.637,6.101.303,2.17,1.698,4.345,2.431,6.316.238.638.149,1.28.339,1.845.407,1.208,2.12,1.592,2.322,3.26.347,2.866-.492,2.632-1.512,4.567-2.011,3.814-3.607,10.841-3.087,15.081,1.301,10.607,4.317,18.792,13.831,24.523,1.722,1.038,6.531,1.54,8.974,2.679,1.54.718,2.861,2.21,4.961,2.808,1.68.478,2.387,0,3.885-.024,2.003-.031,4.776.379,6.532.233,2.874-.239,1.902-2.747,3.541-3.267,1.802-.573,2.343.735,3.556.858,1.226.124,5.694-2.523,4.228-3.763-5.205-1.673-10.753-2.658-15.544-5.332-3.5-.865-6.575-2.34-9.937-3.414-1.97-.63-3.898-2.065-5.659-2.838-1.34-.588-2.099-.075-3.335-1.52-1.512-1.768-1.158-1.196-2.898-2.443-5.053-3.621-5.264-12.664-3.735-18.025.412-1.446,4.488-6.719,5.856-7.253.656-.256,2.297-.286,2.6-.797.232-1.596-.374-2.753.184-4.43.404-1.216,2.277-3.365,2.362-4.696.04-.633-.564-1.315-.674-1.984-.389-2.377,2.345-3.018,2.618-5.521.197-1.812-.731-5.685-1.811-7.172-.751-1.033-4.313-3.075-5.54-3.442-.912-.273-1.284-.172-2.168-.115ZM74.963,36.901c-1.605.153-2.018,2.923-3.262,3.292-2.209.656-4.495-2.166-7.122-.323-1.292.907-2.85,3.509-3.222,5.029-.331,1.353.025,5.319.428,6.765.916,3.284,2.686,4.567,5.626,6.026,3.05,1.514,6.804,3.146,10.054,4.026.428.116.699.678,1.32.635.892-.062.515-1.167.663-1.788.131-.55,1.65-2.163,2.143-2.469.625-.388,1.948-.424,2.144-1.021.318-.966-1.73-3.091-1.381-4.994.508-2.769,3.916-1.407,5.062-2.485.648-.609-.475-1.571-.511-2.437-.034-.816.562-1.975,1.249-2.405,1.25-.781,4.051-.32,1.666-2.187-3.972-3.109-6.915-3.73-11.701-4.564-1.101-.192-1.96-1.215-3.157-1.101ZM171.342,37.146c-1.047.196-2.901,1.145-3.703,1.878-.635.58-4.129,5.246-4.324,5.871-.095.305-.638,4.509-.628,4.898.111,4.331,1.878,8.151,5.627,10.415,1.467.886,1.81.446,3.201.683,2.334.398,2.483,3.216,4.162,3.381,1.448.143,2.999-1.054,4.209-1.351,1.64-.404,3.422-.586,5.116-1.196.429-.154,3.368-1.437,3.531-1.567.397-.32,1.463-2.623,1.641-3.214.362-1.202.228-2.375.468-3.415.27-1.165,1.054-2.451,1.162-3.697.275-3.176-1.664-7.039-3.877-9.235-1.738-1.723-6.683-3.095-9.117-3.264-1.406-.097-6.373-.393-7.468-.187ZM100.215,50.725c-.267.053-2.876,1.041-2.988,1.155-.578.585-.217,1.715-.83,2.569-.535.746-1.592.804-2.06,1.338-.831.948-.832,4.216-1.574,5.223-.798,1.083-3.211.178-4.479,1.103-1.171.854.357,1.613.79,2.317.845,1.376.508,2.2,2.691,2.65,1.98.408,4.407.606,6.39,1.136,2.035.543,4.04,1.645,6.157,1.855,1.165.116,2.509-.13,3.597.044.7.112,1.138.638,1.954.722.864.089,1.735-.112,2.548-.376.827-.599-.963-1.837-1.367-2.51-1.301-2.17-.199-2.855-.632-4.467-.149-.555-.909-1.156-1.2-1.712-1.707-3.261-3.339-6.041-5.781-8.784-.854-.96-1.288-2.648-3.217-2.262ZM166.067,81.993c-2.059-.171-3.827,1.25-5.579,1.826-3.218,1.057-6.525,1.916-9.703,2.92-5.476,1.73-10.593,1.61-16.283,3.624-3.343,1.183-6.651,2.255-9.999,3.353-2.21.724-4.862,2.209-6.938,2.772-1.708.463-3.249.186-4.956.627-2.094.541-5.495,1.381-7.435,2.033-1.495.503-3.284,1.676-4.885,2.155-2.929.876-4.733.727-7.757,2.197-5.486,2.666-9.951,3.258-15.669,4.966-1.923.574-3.936.368-5.737.818-1.035.259-2.703,1.35-3.867,1.716-7.584,2.385-15.061,5.032-22.825,7.035-1.727.446-3.204.63-4.804,1.022-1.192.293-2.291,1.488-3.376,1.722-.544.117-1.126-.029-1.62.079-6.896,1.506-13.75,3.279-20.722,4.525-.953.17-2.422-.15-3.202.439-1.123.849.126,2.517.23,3.627.191,2.045-.092,5.163,0,7.283.102,2.384.958,4.877.702,7.257-.079.735-.462,1.414-.478,2.211-.023,1.107.554,2.057.524,3.154-.023.837-.49,1.465-.517,2.191-.032.884.514,1.753.516,2.665.01,4.482-.488,8.955-.038,13.369.273,2.677.408,5.539.515,8.223.125,3.144-1.072,6.787,3.697,5.9.854-.159,1.48-.862,2.347-1.05,3.228-.701,6.938-2.229,10.118-2.526.734-.068,1.331.25,2.116.216,1.871-.082,5.5-1.559,7.624-1.865,1.034-.149,2.082.056,3.077-.079,1.102-.15,2.247-.964,3.483-1.13,2.5-.336,4.885-.594,7.354-1.143,3.01-.668,3.85-1.387,6.378-2.604,2.407-1.158,7.829-2.054,10.667-2.685,1.359-.302,3.231-.576,4.415-.926.918-.272,1.971-1.285,2.743-1.406.554-.086,1.028.202,1.765.108.718-.091,3.216-.916,4.183-1.179,7.173-1.952,13.938-4.263,21.201-5.745,5.211-1.063,10.51-2.623,15.729-3.449,5.202-.823,9.929-2.687,14.949-3.987,5.533-1.433,11.149-2.498,16.521-4.357,4.403-1.523,8.893-2.045,13.298-3.452,2.823-.902,1.855-1.838,1.999-4.313.214-3.68-.301-8.044,0-11.41.11-1.23.912-2.815.947-3.907.023-.724-.457-1.431-.462-2.161-.005-.697.389-1.659.48-2.432.767-6.47.949-13.22.265-19.678-.575-5.434-.387-10.699-.987-16.005-.092-.816.056-1.718-.004-2.546ZM187.585,83.484c-.327.11-1.112,2.772-1.144,3.246-.136,2.036.453,4.623.27,6.802-.53,6.308-.163,12.514-.24,18.936-.051,4.249.138,8.437.009,12.612-.149,4.832.551,9.524.224,14.322-.07,1.032-1.071,2.054.254,2.899.626.399,3.109.784,4.061,1.036,7.224,1.917,14.603,3.741,21.85,5.825,2.752.792,7.028,2.576,9.657,2.967,7.116,1.058,14.632,1.781,21.824,2.21,1.767.105,3.87-.224,5.573.011,1.038.143,2.089.968,2.992,1.135.88.163,1.785-.062,2.611.06,5.633.828,11.226,2.545,16.739,3.653,9.799,1.969,19.519,3.911,29.409,5.792,5.337,1.015,10.669,1.938,16.023,2.67,6.176.845,12.458,1.531,18.647,2.473,1.55.236,4.293,1.364,5.627,1.416,1.196.046,3.163-.295,4.353-.249,1.43.055,6.811,1.029,7.648.627.784-.376,1.224-3.705,1.388-4.678.322-1.905.925-4.974,1.024-6.762.052-.928-.48-1.877-.452-2.842.083-2.874,1.454-6.835,1.641-9.497.368-5.226.045-10.574.02-15.784-.009-1.993.881-5.06,1-7.273.117-2.163.231-5.953-.006-8.025s-2.794-1.321-4.439-1.63c-6.058-1.139-12.167-3.04-18.21-4.366-.666-.146-1.265-.788-2.01-.903-2.649-.411-5.553-.208-8.213-.769-1.126-.238-2.644-1.131-3.455-1.179-3.614-.214-6.555-.729-10.148-1.483-11.608-2.438-23.089-4.829-34.755-7-.713-.133-1.545.036-2.344-.083-1.173-.175-1.858-.92-2.79-1.093-1.225-.228-2.084.183-3.073.16-1.628-.037-4.325-.891-6.127-1.157-8.578-1.269-16.972-2.742-25.394-4.466-4.812-.985-9.881-1.112-14.767-2.227-4.445-1.014-8.942-1.607-13.404-2.618-.746-.169-1.657-.808-2.297-.863-.65-.056-1.301.328-2.117.182-.569-.102-1.091-.727-1.77-.904-1.345-.35-3.054-.476-4.485-.856-2.454-.651-5.678-2.006-8.148-2.291-.676-.078-2.513-.216-3.055-.034ZM74.218,87.859c-1.348.461-.869,6.258-.878,7.617-.006.845-.28,1.67-.263,2.67.008.471.307,2.959.472,3.169,1.167,1.482,3.256-.852,4.149-1.239,1.725-.747,5.22-.364,6.302-1.223.135-.107,2.026-2.472,2.161-2.694.22-.361,1.82-3.289,1.869-3.481.101-.394-.121-3.974-.24-4.144l-13.572-.675Z"/>
      <path d="M187.585,83.484c.542-.182,2.379-.044,3.055.034,2.47.285,5.693,1.64,8.148,2.291,1.432.38,3.14.506,4.485.856.679.177,1.201.802,1.77.904.816.146,1.467-.238,2.117-.182.64.055,1.55.694,2.297.863,4.462,1.011,8.959,1.604,13.404,2.618,4.886,1.115,9.954,1.242,14.767,2.227,8.422,1.724,16.816,3.197,25.394,4.466,1.802.267,4.5,1.12,6.127,1.157.988.022,1.848-.388,3.073-.16.932.173,1.617.918,2.79,1.093.799.119,1.631-.049,2.344.083,11.666,2.171,23.147,4.562,34.755,7,3.592.755,6.534,1.269,10.148,1.483.81.048,2.328.942,3.455,1.179,2.661.561,5.565.359,8.213.769.744.115,1.344.757,2.01.903,6.043,1.327,12.152,3.228,18.21,4.366,1.645.309,4.202-.446,4.439,1.63s.122,5.862.006,8.025c-.119,2.214-1.009,5.28-1,7.273.024,5.21.347,10.559-.02,15.784-.187,2.661-1.558,6.623-1.641,9.497-.028.965.504,1.914.452,2.842-.1,1.788-.702,4.857-1.024,6.762-.165.973-.605,4.302-1.388,4.678-.837.402-6.219-.572-7.648-.627-1.191-.046-3.157.295-4.353.249-1.334-.051-4.077-1.18-5.627-1.416-6.19-.942-12.472-1.628-18.647-2.473-5.354-.732-10.685-1.655-16.023-2.67-9.89-1.88-19.61-3.823-29.409-5.792-5.514-1.108-11.107-2.825-16.739-3.653-.826-.121-1.731.104-2.611-.06-.902-.167-1.954-.992-2.992-1.135-1.702-.235-3.805.094-5.573-.011-7.192-.429-14.708-1.152-21.824-2.21-2.629-.391-6.905-2.175-9.657-2.967-7.247-2.084-14.626-3.908-21.85-5.825-.952-.253-3.435-.637-4.061-1.036-1.325-.844-.324-1.867-.254-2.899.327-4.798-.373-9.49-.224-14.322.129-4.175-.06-8.363-.009-12.612.077-6.423-.29-12.628.24-18.936.183-2.179-.406-4.767-.27-6.802.032-.474.817-3.136,1.144-3.246ZM214.572,98.816c-2.249.144-5.704.405-7.237,2.231-.604.719-.696,1.699-1.16,2.482-.38.642-.97,1.08-1.358,1.797-1.011,1.867-1.257,3.699.036,5.49.836,1.157,3.053.764,4.167.17,1.491-.795.595-3.878,2.807-5.447,1.342-.952,5.595-1.258,7.093-.536.3.145,1.035.753,1.156,1.029.068.156.835,3.125.847,3.298.04.551-.112.881-.299,1.365-.283.73-4.113,6.628-4.657,7.236-1.607,1.795-3.794,3.683-5.481,5.443-.807.842-1.966,2.652-2.778,3.291-.619.487-1.595.695-2.393,1.249-1.557,1.081-3.011,2.551-4.554,3.7-1.665,1.24-3.922,1.459-3.322,4.335.155.745,1.366,2.453,2.063,2.79.715.346,2.881.457,3.831.539,1.15.1,2.397-.173,3.525.116,2.635.677,6.691,4.538,9.446,5.119,2.466.52,7.195.377,9.411-.814,1.359-.731,3.473-3.761,3.687-5.295.095-.68.334-3.272.26-3.836-.392-2.979-4.082-3.163-6.41-2.798-2.692.422-1.011,3.301-1.147,4.922-.564,1.648-5.909.037-7.17-.518-1.005-.443-1.271-1.04-2.03-1.612-.614-.463-2.082-.783-2.182-1.727-.067-.631,1.544-1.679,2.079-2.291,2.439-2.794,5.16-5.082,7.395-7.898,1.628-2.051,2.106-3.3,3.299-5.439.573-1.028,2.029-1.985,2.35-2.747,1.531-3.633,1.157-10.418-1.993-13.176-.248-.217-2.682-1.957-2.849-2.006-1.346-.394-4.962-.556-6.434-.461ZM237.203,121.077c.459-.092.66.077.983.346,1.012.84,2.843,4.117,3.873,5.351.512.614,1.54,1.723,2.323,1.821,1.333.168,3.894-1.02,3.975-2.557.024-.453-.261-.919-.248-1.437.094-3.598,1.242-9.706,2.009-13.305.326-1.529,1.439-1.756.623-3.886-.78-2.037-2.692-1.932-4.395-1.099-2.136,1.045-1.896,2.737-2.218,4.821-.392.605-1.223,4.794-1.471,4.843-.894.177-.819-1.516-.956-1.952-.425-1.342-2.195-7.135-2.918-7.762-.473-.411-2.511-.779-3.14-.721-.576.053-1.538.853-1.845,1.332-.321.501-1.584,4.002-1.677,4.634-.383,2.593-.423,5.593-.752,8.23-.244,1.961-1.225,3.38.894,4.695,2.534,1.573,4.47-1.038,4.94-3.355ZM255.587,106.081c-1.039.135-2.425,1.215-2.604,2.267-.141.83.294,1.576.25,2.402-.105,1.99-.763,4.72-1.117,6.672-.399,2.204-.064,3.265-.126,5.193-.051,1.578-1.567,4.231-1.396,5.556.189,1.47,4.064,4.799,5.659,4.8,2.994.002,5.474-.445,7.899-2.302,1.337-1.024,2.426-2.937,3.024-4.501.449-1.173,1.79-5.369,1.834-6.441.088-2.156-.803-4.766-.292-6.965-2.102-6.204-7.503-6.301-13.13-6.681ZM286.179,112.399c-1.133.154-3.844,1.307-4.066,2.496-.352,1.883,1.337,2.097,1.212,3.364-.052.529-.556,1.31-.665,2.03-.222,1.466-.092,3.289-.331,4.766-.263,1.626-1,3.184-1.158,4.911-.143,1.56.147,3.3-.052,4.803-.29,2.197-1.155,4.542-1.41,7.086-.223,2.219-.718,3.174-.982,4.843-.324,2.045-.336,4.987,1.458,6.281,1.289.93,2.218,1.251,3.394.026,1.906-1.985.989-2.947,1.204-5.11.089-.892.602-1.478.712-2.198.151-.981-.103-2.116.036-3.119.049-.354.941-3.181,1.063-3.304.195-.235.455-.241.732-.258,1.259-.08,3.867.829,5.348.747,5.08.476,12.118-2.778,14.41-7.433.134-.272,1.711-5.493,1.735-5.795.238-2.921-1.992-8.724-4.73-10.078-3.931-1.944-13.61-4.641-17.909-4.057ZM314.576,119.431c-2.541.52-1.918,2.702-2.122,4.433-.944,8.007-3.615,15.692-4.613,23.545-.133,1.05-.729,3.029-.704,3.864.035,1.157.848,2.238,1.139,3.232.201.686.021,1.411.348,2.322.859,2.393,3.232,3.008,5.468,3.514,3.272.74,5.998,1.143,9.294,2.115,2.375.701,5.242.835,7.654.138,1.446-.418,3.602-2.813,3.749-4.282.153-1.536-1.457-4.87-2.972-5.497-1.564-.647-3.036.598-3.935,1.766-.301.392-.296,1.004-.618,1.323-.794.786-3.141-.178-4.277-.331-2.762-.372-3.985-.532-6.684-1.328-1.007-.297-1.465.205-2.029-.884-2.097-4.044.571-9.618,1.519-13.78.406-1.785,1.451-5.888,1.498-7.485.023-.771-.348-1.33-.166-2.35.167-.931.989-1.871,1.137-2.989.124-.939.257-3.422.23-4.36-.048-1.677-2.18-3.323-3.916-2.968Z"/>
      <path d="M166.067,81.993c.06.828-.088,1.729.004,2.546.6,5.306.411,10.571.987,16.005.684,6.458.502,13.208-.265,19.678-.092.773-.485,1.735-.48,2.432.006.729.485,1.437.462,2.161-.035,1.092-.837,2.677-.947,3.907-.302,3.366.214,7.73,0,11.41-.144,2.475.824,3.411-1.999,4.313-4.405,1.407-8.895,1.929-13.298,3.452-5.372,1.858-10.988,2.924-16.521,4.357-5.019,1.3-9.747,3.163-14.949,3.987-5.219.826-10.518,2.386-15.729,3.449-7.263,1.482-14.029,3.793-21.201,5.745-.967.263-3.465,1.088-4.183,1.179-.737.093-1.21-.195-1.765-.108-.772.12-1.825,1.134-2.743,1.406-1.183.35-3.056.624-4.415.926-2.838.63-8.26,1.526-10.667,2.685-2.528,1.217-3.369,1.936-6.378,2.604-2.469.548-4.854.807-7.354,1.143-1.235.166-2.38.98-3.483,1.13-.995.135-2.043-.069-3.077.079-2.124.306-5.753,1.783-7.624,1.865-.785.035-1.382-.284-2.116-.216-3.181.297-6.89,1.825-10.118,2.526-.867.188-1.493.891-2.347,1.05-4.769.887-3.572-2.755-3.697-5.9-.107-2.684-.242-5.547-.515-8.223-.45-4.414.048-8.887.038-13.369-.002-.912-.548-1.781-.516-2.665.026-.726.494-1.354.517-2.191.03-1.098-.547-2.047-.524-3.154.017-.797.399-1.476.478-2.211.256-2.38-.6-4.873-.702-7.257-.091-2.121.192-5.239,0-7.283-.103-1.109-1.353-2.778-.23-3.627.779-.589,2.249-.268,3.202-.439,6.972-1.246,13.826-3.019,20.722-4.525.495-.108,1.076.038,1.62-.079,1.085-.234,2.184-1.429,3.376-1.722,1.6-.393,3.077-.577,4.804-1.022,7.764-2.003,15.241-4.65,22.825-7.035,1.165-.366,2.833-1.457,3.867-1.716,1.801-.45,3.814-.244,5.737-.818,5.718-1.707,10.183-2.3,15.669-4.966,3.024-1.47,4.828-1.321,7.757-2.197,1.601-.479,3.391-1.652,4.885-2.155,1.939-.652,5.34-1.492,7.435-2.033,1.707-.441,3.248-.164,4.956-.627,2.076-.563,4.728-2.048,6.938-2.772,3.348-1.097,6.656-2.17,9.999-3.353,5.69-2.014,10.807-1.894,16.283-3.624,3.178-1.004,6.486-1.863,9.703-2.92,1.752-.576,3.52-1.997,5.579-1.826ZM153.862,97.828c-.701.147-1.249.796-1.876,1.036-3.458,1.326-6.414,1.085-9.662,2.234-3.088,1.093-6.396,3.041-9.695,3.657-.983.184-1.904-.078-2.936.22-2.78.801-2.781,5.056-.109,5.605.768.158,3.647-.096,4.5-.244,1.308-.226,3.679-1.767,4.871-1.362,1.117.379.386,3.882.913,4.941-.495,4.857.503,9.924.488,14.806-.006,1.863-1.263,6.013,1.61,6.63.806.173,3.322-.261,3.826-.928.34-.45.607-3.234.618-3.992.064-4.487-.529-8.966-.485-13.351.026-2.599-.267-4.367-.493-6.809-.447-4.824.75-3.475,4.137-4.355,1.055-.274,6.181-1.815,6.651-2.331.662-.728,1.043-2.443.752-3.397-.088-.29-1.215-2.047-1.45-2.188-.543-.326-1.05-.3-1.661-.172ZM112.356,106.309c-2.942.471-4.865,1.923-7.299,3.161-.515.262-1.199.232-1.696.489-1.949,1.01-.396,5.211-.407,6.857-.051,7.882-.298,14.399.231,22.346.163,2.442-.839,5.805,2.184,6.797,5.726,1.877,3.752-3.1,3.623-6.315-.028-.691.294-1.308.285-1.942-.011-.779-.793-3.678.137-3.97.463-.145,3.302-.474,3.848-.47,6.269.036,6.37,6.529,11.224,7.419.655.12,2.667.179,3.217-.07.685-.311,1.808-2.16,1.931-2.922.459-2.867-1.86-2.864-3.704-4.035-1.475-.937-3.292-2.659-4.656-3.84-3.478-3.013-.352-3.524,1.583-5.7,2.441-2.745,2.837-7.706,1.573-11.05-.804-2.126-1.828-3.992-3.991-4.991-.369-.171-3.579-1.436-3.836-1.505-.22-.059-4.031-.294-4.249-.259ZM92.684,113.839c-1.008.221-2.057,1.778-2.101,2.763-.04.915.572,2.216.686,3.162.875,7.279.981,17.476.202,24.668-.172,1.585-.657,3.34-2.663,3.053-.345-.049-3.456-1.335-3.81-1.547-1.645-.988-1.051-3.299-1.252-4.817-.12-.905-.727-1.702-.728-2.691,0-1.144.77-2.108.77-3.4,0-4.427-.211-8.906-.274-13.359-.018-1.275.773-5.018-.946-5.586-1.221-.403-2.574.358-3.413,1.228-2.702,2.803-1.401,10.456-1.444,14.086-.06,5.094-1.892,16.781,3.538,19.742.647.353,1.487.377,2.199.714.822.389,1.664,1.209,2.486,1.398.376.087,3.998.569,4.274.56.599-.019,3.087-1.179,3.758-1.544.6-.326,1.9-1.099,2.292-1.592,1.3-1.634,2.162-7.164,2.313-9.338.168-2.408-.337-4.775-.249-7.048.203-5.26.646-9.817-.221-15.052-.124-.751.088-1.565-.069-2.358-.327-1.649-3.801-3.384-5.351-3.044ZM61.14,121.611c-1.562.137-5.38,1.893-6.153,3.336-.632,1.18-2.375,5.486-2.517,6.707-.333,2.861.545,6.359-.136,8.845-.182.665-.715,1.219-.833,2.08-.411,2.995.167,9.483,1.764,12.029.793,1.264,4.2,4.856,5.497,5.427,1.716.755,4.978,1.048,6.719.406,7.003-2.581,7.746-8.223,8.33-14.974.367-4.237-.292-7.994-.242-11.893.021-1.656-.668-4.054-1.587-5.448-.19-.289-4.708-4.3-5.135-4.575-1.518-.98-3.876-2.1-5.707-1.94ZM35.15,125.259c-4.022.692-7.824,4.287-10.237,7.483-2.584,3.422-3.748,9.58-4.483,13.723-.646,3.641-.494,9.589.755,13.032.728,2.007,5.315,7.512,7.109,8.67.509.329,5.132,1.609,5.854,1.684.424.044,3.428.049,3.836.011.187-.017,3.373-1.003,3.532-1.101,1.907-1.182,5.452-6.325,5.774-8.548-.334-3.303,2.038-7.846-3.19-7.314-4.632.472-2.998,3.208-4.228,6.451-.495,1.306-1.823,3.304-3.317,3.48-.922.108-4.14.119-4.833-.276-.955-.543-2.767-4.391-3.994-5.23-.827-1.409-1.257-5.557-1.255-7.246.001-.834.593-1.461.716-2.196.264-1.579.054-3.701.315-5.268.479-2.88,3.095-6.851,5.046-9.034,2.042-2.286,5.03-2.995,7.28-.494,1.728,1.92-.42,5.271,1.814,7.167,2.253,1.911,4.202.61,4.865-1.937.177-.679-.018-4.355-.122-5.232-.033-.276-2.458-4.379-2.688-4.594-.789-.739-4.998-2.904-6.05-3.175-.745-.192-1.743-.187-2.499-.057Z"/>
      <path d="M59.441,6.334c.883-.057,1.256-.158,2.168.115,1.227.367,4.789,2.408,5.54,3.442,1.08,1.487,2.008,5.36,1.811,7.172-.273,2.503-3.006,3.144-2.618,5.521.109.669.714,1.351.674,1.984-.084,1.331-1.957,3.48-2.362,4.696-.558,1.677.049,2.834-.184,4.43-.303.511-1.944.541-2.6.797-1.367.534-5.443,5.806-5.856,7.253-1.529,5.361-1.318,14.404,3.735,18.025,1.739,1.247,1.385.675,2.898,2.443,1.237,1.446,1.995.932,3.335,1.52,1.761.773,3.689,2.208,5.659,2.838,3.363,1.075,6.437,2.55,9.937,3.414,4.791,2.674,10.339,3.659,15.544,5.332,1.466,1.24-3.003,3.887-4.228,3.763-1.213-.123-1.754-1.431-3.556-.858-1.639.521-.667,3.028-3.541,3.267-1.756.146-4.529-.265-6.532-.233-1.498.023-2.205.502-3.885.024-2.1-.597-3.421-2.09-4.961-2.808-2.443-1.139-7.251-1.641-8.974-2.679-9.514-5.731-12.53-13.916-13.831-24.523-.52-4.24,1.076-11.267,3.087-15.081,1.021-1.935,1.859-1.701,1.512-4.567-.202-1.669-1.915-2.052-2.322-3.26-.191-.565-.102-1.207-.339-1.845-.734-1.971-2.129-4.146-2.431-6.316-.094-.674,1.286-5.183,1.637-6.101,1.661-4.339,6.082-7.467,10.684-7.764ZM54.572,12.136c-2.517.241-2.868,4.151-1.023,5.77,1.975,1.733,3.967,1.399,6.247.432,2.029-.86,2.72-2.378,2.256-4.567-.722-3.404-3.28-.7-4.625-.7-.914,0-1.816-1.035-2.855-.935Z" fill="#f6e6c8"/>
      <path d="M171.342,37.146c1.095-.205,6.062.09,7.468.187,2.434.168,7.38,1.54,9.117,3.264,2.213,2.195,4.152,6.059,3.877,9.235-.108,1.246-.892,2.532-1.162,3.697-.241,1.04-.107,2.213-.468,3.415-.178.591-1.244,2.894-1.641,3.214-.162.131-3.102,1.413-3.531,1.567-1.694.61-3.476.792-5.116,1.196-1.21.298-2.761,1.494-4.209,1.351-1.68-.166-1.829-2.984-4.162-3.381-1.391-.237-1.734.203-3.201-.683-3.749-2.264-5.516-6.083-5.627-10.415-.01-.389.533-4.593.628-4.898.195-.625,3.689-5.291,4.324-5.871.802-.733,2.657-1.681,3.703-1.878ZM177.891,39.808c-.567.172-1.731,1.725-1.829,2.318-.106.643.62,2.482,1.063,2.96,1.041,1.122,2.568.727,3.517,3.037,1.115,2.714-.206,2.564-.481,4.394-.531,3.53,4.69,4.266,5.762,1.633,1.356-3.333,1.095-5.961-.139-9.227-.349-.923-1.799-2.671-2.638-3.188-.332-.205-3.467-1.789-3.716-1.865-.479-.147-1.058-.208-1.54-.062Z" fill="#f6e6c8"/>
      <path d="M74.963,36.901c1.198-.114,2.056.909,3.157,1.101,4.787.834,7.729,1.454,11.701,4.564,2.384,1.866-.416,1.405-1.666,2.187-.687.429-1.283,1.588-1.249,2.405.036.866,1.158,1.828.511,2.437-1.146,1.078-4.554-.284-5.062,2.485-.349,1.903,1.699,4.027,1.381,4.994-.196.597-1.519.634-2.144,1.021-.493.306-2.012,1.919-2.143,2.469-.148.62.23,1.725-.663,1.788-.621.043-.892-.519-1.32-.635-3.25-.88-7.005-2.512-10.054-4.026-2.939-1.459-4.709-2.742-5.626-6.026-.403-1.446-.759-5.412-.428-6.765.371-1.52,1.93-4.123,3.222-5.029,2.627-1.844,4.912.979,7.122.323,1.244-.369,1.657-3.139,3.262-3.292Z" fill="#f6e6c8"/>
      <path d="M100.215,50.725c1.929-.386,2.363,1.303,3.217,2.262,2.441,2.743,4.073,5.524,5.781,8.784.291.556,1.051,1.157,1.2,1.712.433,1.612-.669,2.297.632,4.467.404.673,2.194,1.911,1.367,2.51-.813.263-1.684.464-2.548.376-.816-.084-1.254-.61-1.954-.722-1.088-.174-2.433.072-3.597-.044-2.117-.21-4.122-1.311-6.157-1.855-1.983-.53-4.41-.727-6.39-1.136-2.183-.45-1.845-1.274-2.691-2.65-.433-.705-1.961-1.463-.79-2.317,1.268-.925,3.681-.02,4.479-1.103.742-1.007.742-4.275,1.574-5.223.469-.535,1.525-.593,2.06-1.338.613-.854.251-1.984.83-2.569.113-.114,2.721-1.101,2.988-1.155Z" fill="#f6e6c8"/>
      <path d="M74.218,87.859l13.572.675c.119.17.341,3.75.24,4.144-.049.192-1.648,3.12-1.869,3.481-.135.222-2.026,2.587-2.161,2.694-1.082.86-4.577.477-6.302,1.223-.893.387-2.982,2.721-4.149,1.239-.165-.209-.464-2.697-.472-3.169-.017-1,.257-1.825.263-2.67.01-1.359-.47-7.157.878-7.617Z" fill="#f6e6c8"/>
      <path d="M214.572,98.816c1.472-.095,5.088.067,6.434.461.167.049,2.6,1.789,2.849,2.006,3.15,2.758,3.524,9.544,1.993,13.176-.321.762-1.777,1.719-2.35,2.747-1.193,2.14-1.672,3.388-3.299,5.439-2.235,2.816-4.956,5.105-7.395,7.898-.534.612-2.146,1.659-2.079,2.291.1.944,1.568,1.264,2.182,1.727.759.572,1.025,1.169,2.03,1.612,1.261.556,6.607,2.166,7.17.518.135-1.621-1.545-4.5,1.147-4.922,2.328-.365,6.018-.181,6.41,2.798.074.564-.166,3.156-.26,3.836-.213,1.535-2.327,4.564-3.687,5.295-2.216,1.191-6.944,1.334-9.411.814-2.755-.581-6.812-4.442-9.446-5.119-1.128-.29-2.375-.017-3.525-.116-.95-.082-3.116-.193-3.831-.539-.697-.337-1.908-2.045-2.063-2.79-.6-2.876,1.657-3.095,3.322-4.335,1.543-1.149,2.996-2.619,4.554-3.7.798-.554,1.774-.762,2.393-1.249.812-.639,1.971-2.449,2.778-3.291,1.687-1.76,3.875-3.648,5.481-5.443.544-.608,4.373-6.506,4.657-7.236.188-.484.339-.814.299-1.365-.013-.173-.779-3.142-.847-3.298-.121-.276-.855-.885-1.156-1.029-1.498-.722-5.752-.416-7.093.536-2.211,1.569-1.316,4.651-2.807,5.447-1.114.594-3.331.988-4.167-.17-1.294-1.791-1.048-3.623-.036-5.49.388-.717.978-1.156,1.358-1.797.463-.782.556-1.763,1.16-2.482,1.533-1.825,4.988-2.086,7.237-2.231Z" fill="#f6e6c8"/>
      <path d="M286.179,112.399c4.299-.584,13.978,2.112,17.909,4.057,2.738,1.355,4.968,7.157,4.73,10.078-.025.302-1.601,5.523-1.735,5.795-2.291,4.656-9.33,7.91-14.41,7.433-1.481.082-4.089-.827-5.348-.747-.277.018-.537.023-.732.258-.123.123-1.014,2.95-1.063,3.304-.139,1.003.114,2.138-.036,3.119-.111.72-.624,1.307-.712,2.198-.215,2.163.702,3.124-1.204,5.11-1.176,1.225-2.105.903-3.394-.026-1.794-1.294-1.781-4.236-1.458-6.281.264-1.669.76-2.624.982-4.843.255-2.544,1.12-4.889,1.41-7.086.198-1.502-.091-3.242.052-4.803.158-1.727.895-3.285,1.158-4.911.239-1.477.11-3.3.331-4.766.109-.72.613-1.501.665-2.03.125-1.267-1.564-1.481-1.212-3.364.222-1.189,2.934-2.342,4.066-2.496ZM289.554,118.446c-.767.259-.519,1.419-.707,1.962-1.174,3.403-1.316,5.701-1.398,9.282-.031,1.341-.821,2.006.888,3,1.173.683,6.268.734,7.717.507,2.054-.321,5.847-3.808,6.189-5.947.298-1.865-.231-4.977-1.999-5.98-1.812-1.028-7.245-2.705-9.276-2.862-.412-.032-1.046-.086-1.415.039Z" fill="#f6e6c8"/>
      <path d="M314.576,119.431c1.735-.355,3.868,1.29,3.916,2.968.027.938-.106,3.421-.23,4.36-.147,1.118-.97,2.058-1.137,2.989-.183,1.02.188,1.579.166,2.35-.047,1.597-1.092,5.7-1.498,7.485-.948,4.162-3.616,9.736-1.519,13.78.565,1.089,1.022.587,2.029.884,2.699.795,3.922.956,6.684,1.328,1.135.153,3.483,1.116,4.277.331.322-.318.317-.931.618-1.323.899-1.169,2.371-2.413,3.935-1.766,1.515.627,3.125,3.961,2.972,5.497-.146,1.469-2.302,3.864-3.749,4.282-2.411.697-5.279.562-7.654-.138-3.296-.972-6.022-1.375-9.294-2.115-2.236-.506-4.609-1.121-5.468-3.514-.327-.911-.147-1.636-.348-2.322-.291-.994-1.104-2.075-1.139-3.232-.025-.834.571-2.814.704-3.864.998-7.853,3.669-15.538,4.613-23.545.204-1.731-.418-3.913,2.122-4.433Z" fill="#f6e6c8"/>
      <path d="M255.587,106.081c5.627.38,11.028.477,13.13,6.681-.511,2.199.38,4.809.292,6.965-.044,1.072-1.385,5.268-1.834,6.441-.599,1.563-1.688,3.476-3.024,4.501-2.424,1.858-4.905,2.305-7.899,2.302-1.595-.001-5.469-3.331-5.659-4.8-.171-1.325,1.345-3.977,1.396-5.556.063-1.928-.273-2.989.126-5.193.354-1.952,1.012-4.682,1.117-6.672.044-.826-.391-1.572-.25-2.402.179-1.052,1.565-2.132,2.604-2.267ZM259.221,112.376c-.385.112-.585.437-.654.815-.279,1.533-.323,3.689-.517,5.309-.071.59-.375,1.166-.433,1.749-.107,1.066.261,2.021.172,2.823-.116,1.053-1.673,2.322-.334,3.114.959.567,2.347.192,3.161-.508.628-1.945,2.09-3.629,2.316-5.694.106-.963.125-5.474-.181-6.133-.285-.614-2.85-1.673-3.531-1.474Z" fill="#f6e6c8"/>
      <path d="M237.203,121.077c-.47,2.317-2.406,4.928-4.94,3.355-2.119-1.316-1.138-2.735-.894-4.695.328-2.637.368-5.637.752-8.23.093-.633,1.356-4.133,1.677-4.634.307-.479,1.269-1.279,1.845-1.332.629-.058,2.666.31,3.14.721.723.628,2.494,6.42,2.918,7.762.138.435.062,2.129.956,1.952.248-.049,1.078-4.238,1.471-4.843.323-2.084.082-3.776,2.218-4.821,1.703-.833,3.615-.938,4.395,1.099.815,2.13-.298,2.357-.623,3.886-.767,3.599-1.915,9.707-2.009,13.305-.014.517.272.984.248,1.437-.081,1.537-2.642,2.725-3.975,2.557-.783-.098-1.811-1.208-2.323-1.821-1.03-1.234-2.861-4.511-3.873-5.351-.323-.268-.524-.437-.983-.346Z" fill="#f6e6c8"/>
      <path d="M112.356,106.309c.218-.035,4.029.201,4.249.259.257.069,3.467,1.334,3.836,1.505,2.162.999,3.187,2.865,3.991,4.991,1.264,3.343.868,8.305-1.573,11.05-1.935,2.176-5.061,2.687-1.583,5.7,1.364,1.182,3.181,2.904,4.656,3.84,1.843,1.171,4.163,1.168,3.704,4.035-.122.762-1.245,2.611-1.931,2.922-.55.25-2.562.19-3.217.07-4.853-.889-4.955-7.382-11.224-7.419-.546-.003-3.385.325-3.848.47-.93.291-.148,3.191-.137,3.97.009.634-.313,1.251-.285,1.942.129,3.216,2.103,8.193-3.623,6.315-3.024-.991-2.022-4.355-2.184-6.797-.53-7.948-.283-14.464-.231-22.346.011-1.646-1.542-5.847.407-6.857.497-.257,1.181-.227,1.696-.489,2.435-1.238,4.357-2.69,7.299-3.161ZM112.837,112.395c-1.325.183-3.923,1.347-4.254,2.783-.258,1.12.208,1.897.198,2.85-.019,1.802-.191,2.158-.027,4.159.162,1.979-.86,3.856,1.731,3.389,2.483-.447,3.535-1.982,5.213-3.525.496-.456,1.206-.694,1.702-1.211,1.333-1.39,1.955-5.46.607-6.934-.766-.838-4.012-1.671-5.17-1.511Z" fill="#f6e6c8"/>
      <path d="M35.15,125.259c.756-.13,1.754-.136,2.499.057,1.051.271,5.261,2.436,6.05,3.175.23.216,2.656,4.318,2.688,4.594.104.878.299,4.553.122,5.232-.663,2.547-2.612,3.849-4.865,1.937-2.234-1.896-.087-5.247-1.814-7.167-2.251-2.501-5.238-1.792-7.28.494-1.95,2.183-4.566,6.154-5.046,9.034-.261,1.567-.051,3.689-.315,5.268-.123.735-.715,1.362-.716,2.196-.002,1.689.428,5.837,1.255,7.246,1.228.839,3.04,4.687,3.994,5.23.693.394,3.911.384,4.833.276,1.494-.176,2.822-2.174,3.317-3.48,1.23-3.243-.404-5.979,4.228-6.451,5.227-.533,2.856,4.011,3.19,7.314-.322,2.224-3.867,7.366-5.774,8.548-.159.099-3.345,1.084-3.532,1.101-.408.038-3.412.033-3.836-.011-.722-.075-5.345-1.355-5.854-1.684-1.793-1.158-6.381-6.663-7.109-8.67-1.249-3.444-1.401-9.391-.755-13.032.735-4.143,1.899-10.301,4.483-13.723,2.413-3.196,6.216-6.791,10.237-7.483Z" fill="#f6e6c8"/>
      <path d="M61.14,121.611c1.831-.16,4.189.96,5.707,1.94.427.276,4.945,4.287,5.135,4.575.919,1.394,1.608,3.792,1.587,5.448-.049,3.899.609,7.656.242,11.893-.585,6.751-1.327,12.393-8.33,14.974-1.741.642-5.003.349-6.719-.406-1.297-.571-4.704-4.163-5.497-5.427-1.597-2.546-2.175-9.034-1.764-12.029.118-.861.651-1.415.833-2.08.681-2.486-.196-5.984.136-8.845.142-1.221,1.886-5.527,2.517-6.707.772-1.443,4.591-3.199,6.153-3.336ZM61.37,129.122c-1.205.234-2.531,2.128-2.793,3.298-.207.927-.737,4.209-.765,5.063-.027.805.501,1.667.485,2.648-.078,4.581-2.28,8.339,1.443,12.616,1.027,1.18,3.306,2.285,4.73,1.341,2.111-1.399,1.73-2.957,2.134-5.147.738-4.007.543-8.796.414-12.941-.059-1.894.374-3.175-1.23-4.594-.634-.561-3.674-2.428-4.418-2.284Z" fill="#f6e6c8"/>
      <path d="M92.684,113.839c1.55-.34,5.024,1.395,5.351,3.044.157.793-.055,1.608.069,2.358.867,5.235.424,9.792.221,15.052-.088,2.273.417,4.64.249,7.048-.151,2.174-1.014,7.704-2.313,9.338-.392.493-1.692,1.266-2.292,1.592-.671.364-3.159,1.525-3.758,1.544-.276.009-3.898-.474-4.274-.56-.822-.189-1.664-1.009-2.486-1.398-.712-.337-1.553-.361-2.199-.714-5.43-2.961-3.598-14.648-3.538-19.742.043-3.63-1.259-11.283,1.444-14.086.839-.87,2.191-1.631,3.413-1.228,1.719.568.928,4.311.946,5.586.063,4.453.275,8.932.274,13.359,0,1.291-.77,2.255-.77,3.4,0,.989.608,1.786.728,2.691.201,1.518-.393,3.828,1.252,4.817.354.213,3.465,1.498,3.81,1.547,2.005.287,2.491-1.468,2.663-3.053.779-7.192.673-17.388-.202-24.668-.114-.947-.727-2.247-.686-3.162.043-.984,1.092-2.542,2.101-2.763Z" fill="#f6e6c8"/>
      <path d="M153.862,97.828c.611-.129,1.118-.154,1.661.172.236.141,1.362,1.898,1.45,2.188.291.954-.09,2.669-.752,3.397-.47.517-5.595,2.057-6.651,2.331-3.387.88-4.584-.47-4.137,4.355.226,2.442.52,4.21.493,6.809-.044,4.385.549,8.864.485,13.351-.011.758-.278,3.542-.618,3.992-.504.667-3.02,1.101-3.826.928-2.873-.617-1.616-4.767-1.61-6.63.016-4.883-.983-9.95-.488-14.806-.527-1.059.204-4.562-.913-4.941-1.192-.404-3.563,1.136-4.871,1.362-.853.148-3.732.402-4.5.244-2.673-.55-2.671-4.804.109-5.605,1.033-.297,1.953-.036,2.936-.22,3.299-.616,6.606-2.565,9.695-3.657,3.248-1.149,6.204-.907,9.662-2.234.627-.24,1.176-.889,1.876-1.036Z" fill="#f6e6c8"/>
      <path d="M54.572,12.136c1.039-.099,1.941.935,2.855.935,1.345,0,3.903-2.704,4.625.7.464,2.189-.227,3.707-2.256,4.567-2.28.967-4.273,1.301-6.247-.432-1.845-1.619-1.494-5.529,1.023-5.77Z"/>
      <path d="M177.891,39.808c.483-.147,1.061-.085,1.54.062.249.076,3.384,1.661,3.716,1.865.838.517,2.289,2.266,2.638,3.188,1.234,3.266,1.495,5.895.139,9.227-1.072,2.634-6.293,1.897-5.762-1.633.275-1.83,1.596-1.68.481-4.394-.949-2.31-2.477-1.915-3.517-3.037-.443-.478-1.169-2.317-1.063-2.96.098-.593,1.262-2.146,1.829-2.318Z"/>
      <path d="M289.554,118.446c.369-.125,1.003-.07,1.415-.039,2.031.157,7.464,1.834,9.276,2.862,1.768,1.003,2.297,4.115,1.999,5.98-.342,2.139-4.134,5.626-6.189,5.947-1.449.226-6.544.175-7.717-.507-1.709-.994-.919-1.659-.888-3,.082-3.58.224-5.879,1.398-9.282.187-.542-.061-1.703.707-1.962Z"/>
      <path d="M259.221,112.376c.681-.199,3.247.861,3.531,1.474.306.659.286,5.17.181,6.133-.227,2.065-1.689,3.749-2.316,5.694-.813.701-2.202,1.076-3.161.508-1.339-.792.218-2.061.334-3.114.089-.802-.279-1.757-.172-2.823.058-.583.362-1.159.433-1.749.194-1.62.237-3.776.517-5.309.069-.378.269-.703.654-.815Z"/>
      <path d="M112.837,112.395c1.158-.16,4.404.672,5.17,1.511,1.348,1.475.726,5.544-.607,6.934-.496.517-1.206.755-1.702,1.211-1.678,1.542-2.73,3.078-5.213,3.525-2.591.466-1.569-1.411-1.731-3.389-.164-2.001.008-2.357.027-4.159.01-.953-.456-1.73-.198-2.85.331-1.436,2.929-2.6,4.254-2.783Z"/>
      <path d="M61.37,129.122c.744-.144,3.784,1.723,4.418,2.284,1.603,1.419,1.171,2.7,1.23,4.594.129,4.144.324,8.934-.414,12.941-.403,2.19-.023,3.748-2.134,5.147-1.424.944-3.703-.161-4.73-1.341-3.723-4.278-1.52-8.035-1.443-12.616.017-.981-.511-1.843-.485-2.648.028-.854.558-4.135.765-5.063.261-1.169,1.587-3.064,2.793-3.298Z"/>
    </g>
  </g>
</svg>